<svg width="246" height="237" viewBox="0 0 246 237" fill="none" xmlns="http://www.w3.org/2000/svg">
<g clip-path="url(#clip0_457_1944)">
<path d="M42.0248 56.1045L85.1289 56.1045V-0.000686646L42.0248 -0.000686646L42.0248 56.1045Z" fill="#F4F4F4"/>
<path d="M42.0244 -0.000976562H40.626V56.1042H42.0244V-0.000976562Z" fill="#F4F4F4"/>
<path opacity="0.05" d="M42.0244 -0.000976562H40.626V56.1042H42.0244V-0.000976562Z" fill="#292A2E"/>
<path opacity="0.05" d="M49.8761 45.8838H77.2764V10.219H49.8761V45.8838Z" fill="#292A2E"/>
<path opacity="0.03" d="M49.8763 45.8838H51.3042L51.3042 10.219H49.8763L49.8763 45.8838Z" fill="#292A2E"/>
<path d="M6.77222 105.479H42.0244L42.0244 69.9027H6.77222L6.77222 105.479Z" fill="#F4F4F4"/>
<path opacity="0.05" d="M13.1936 98.998H35.6025V76.3834H13.1936L13.1936 98.998Z" fill="#292A2E"/>
<path d="M6.77192 69.9023H5.37354V105.478H6.77192V69.9023Z" fill="#F4F4F4"/>
<path opacity="0.05" d="M6.77192 69.9023H5.37354V105.478H6.77192V69.9023Z" fill="#292A2E"/>
<path opacity="0.03" d="M13.1941 98.998H14.6221L14.6221 76.3834H13.1941L13.1941 98.998Z" fill="#292A2E"/>
<path d="M233.001 1.99902H131.521V103.479H233.001V1.99902Z" fill="#F4F4F4"/>
<path d="M234.164 1.99902H233.001V103.479H234.164V1.99902Z" fill="#F4F4F4"/>
<path opacity="0.05" d="M234.164 1.99902H233.001V103.479H234.164V1.99902Z" fill="#292A2E"/>
<path opacity="0.05" d="M208.417 71.9272V45.377H186.668V60.802H152.98V88.1143H138.662V103.479H152.98H155.738H228.119V71.9272H208.417Z" fill="#292A2E"/>
<path opacity="0.34" d="M205.298 48.2588H189.46V51.1415H205.298V48.2588Z" fill="#FFFFFA"/>
<path opacity="0.34" d="M205.298 54.2334H189.46V57.1161H205.298V54.2334Z" fill="#FFFFFA"/>
<path opacity="0.34" d="M205.298 60.2061H189.46V63.0887H205.298V60.2061Z" fill="#FFFFFA"/>
<path opacity="0.34" d="M225.311 74.7256H222.392V77.6083H225.311V74.7256Z" fill="#FFFFFA"/>
<path opacity="0.34" d="M225.311 80.6982H222.392V83.5809H225.311V80.6982Z" fill="#FFFFFA"/>
<path opacity="0.34" d="M225.311 86.6729H222.392V89.5555H225.311V86.6729Z" fill="#FFFFFA"/>
<path opacity="0.34" d="M219.91 74.7256H216.991V77.6083H219.91V74.7256Z" fill="#FFFFFA"/>
<path opacity="0.34" d="M219.91 80.6982H216.991V83.5809H219.91V80.6982Z" fill="#FFFFFA"/>
<path opacity="0.34" d="M219.91 86.6729H216.991V89.5555H219.91V86.6729Z" fill="#FFFFFA"/>
<path opacity="0.34" d="M214.657 74.7256H211.738V77.6083H214.657V74.7256Z" fill="#FFFFFA"/>
<path opacity="0.34" d="M214.657 80.6982H211.738V83.5809H214.657V80.6982Z" fill="#FFFFFA"/>
<path opacity="0.34" d="M214.657 86.6729H211.738V89.5555H214.657V86.6729Z" fill="#FFFFFA"/>
<path d="M233.001 52.1697H212.582V1.99902H210.893V52.1697H155.738V1.99902H154.049V52.1697H131.521V53.8582H154.049V103.479H155.738V53.8582H210.893V103.479H212.582V53.8582H233.001V52.1697Z" fill="white"/>
<path d="M237.044 103.356H127.479V106.731H237.044V103.356Z" fill="#F4F4F4"/>
<path opacity="0.1" d="M237.044 103.356H127.479V106.731H237.044V103.356Z" fill="#292A2E"/>
<path opacity="0.1" d="M238.625 103.356H237.043V106.731H238.625V103.356Z" fill="#292A2E"/>
<path opacity="0.1" d="M238.625 103.356H237.043V106.731H238.625V103.356Z" fill="#292A2E"/>
<path d="M224.19 202.755C224.157 202.755 224.125 202.748 224.094 202.736C224.064 202.723 224.036 202.705 224.013 202.681C223.66 202.329 223.085 195.853 221.535 176.572C220.901 168.682 220.302 161.231 219.865 156.702C219.834 156.379 219.708 156.341 219.667 156.329C219.069 156.148 217.249 157.583 216.233 158.839C216.191 158.891 216.131 158.924 216.065 158.931C215.999 158.938 215.932 158.919 215.881 158.877C215.829 158.835 215.796 158.774 215.789 158.708C215.782 158.642 215.802 158.576 215.843 158.524C216.515 157.694 218.705 155.516 219.811 155.849C220.034 155.916 220.312 156.11 220.364 156.654C220.801 161.187 221.4 168.64 222.034 176.532C222.976 188.248 224.043 201.522 224.393 202.358C224.42 202.396 224.436 202.44 224.44 202.486C224.443 202.532 224.434 202.578 224.413 202.619C224.392 202.66 224.36 202.694 224.321 202.718C224.281 202.742 224.236 202.755 224.19 202.755Z" fill="#494949"/>
<path d="M219.221 165.011C223.378 161.679 224.756 156.492 222.299 153.426C219.841 150.361 214.479 150.577 210.322 153.909C206.165 157.241 204.788 162.428 207.245 165.493C209.702 168.559 215.064 168.343 219.221 165.011Z" fill="#0CBC8B"/>
<path opacity="0.2" d="M219.221 165.011C223.378 161.679 224.756 156.492 222.299 153.426C219.841 150.361 214.479 150.577 210.322 153.909C206.165 157.241 204.788 162.428 207.245 165.493C209.702 168.559 215.064 168.343 219.221 165.011Z" fill="white"/>
<path d="M208.41 166.274C208.386 166.274 208.363 166.267 208.343 166.255C208.323 166.242 208.307 166.224 208.297 166.202C208.287 166.181 208.283 166.157 208.286 166.133C208.289 166.11 208.299 166.087 208.314 166.069L220.161 151.782C220.172 151.769 220.184 151.759 220.199 151.751C220.214 151.743 220.23 151.738 220.246 151.736C220.263 151.734 220.28 151.736 220.295 151.741C220.311 151.746 220.326 151.754 220.339 151.764C220.352 151.775 220.362 151.788 220.37 151.803C220.378 151.817 220.382 151.834 220.384 151.85C220.385 151.867 220.383 151.883 220.378 151.899C220.373 151.915 220.365 151.93 220.354 151.942L208.507 166.229C208.495 166.243 208.48 166.255 208.463 166.262C208.447 166.27 208.429 166.274 208.41 166.274Z" fill="white"/>
<path d="M226.774 199.692C226.734 199.692 226.695 199.682 226.659 199.664C226.624 199.646 226.593 199.619 226.57 199.587C226.547 199.554 226.532 199.516 226.526 199.477C226.52 199.437 226.524 199.397 226.537 199.359L230.988 186.561C231.119 186.185 231.342 185.848 231.637 185.58C231.932 185.313 232.29 185.124 232.677 185.03C233.064 184.937 233.468 184.942 233.853 185.045C234.237 185.149 234.59 185.347 234.878 185.622L237.23 187.869C237.279 187.915 237.306 187.978 237.308 188.045C237.309 188.111 237.284 188.176 237.239 188.224C237.193 188.272 237.13 188.3 237.063 188.301C236.997 188.303 236.932 188.278 236.884 188.232L234.532 185.984C234.304 185.767 234.026 185.611 233.722 185.529C233.419 185.448 233.1 185.444 232.794 185.517C232.489 185.591 232.206 185.74 231.973 185.951C231.741 186.162 231.564 186.429 231.461 186.725L227.011 199.524C226.994 199.573 226.962 199.615 226.919 199.645C226.877 199.676 226.826 199.692 226.774 199.692Z" fill="#494949"/>
<path d="M243.804 194.955C246.885 192.516 246.702 187.153 243.395 182.975C240.088 178.798 234.91 177.388 231.83 179.827C228.749 182.265 228.932 187.629 232.239 191.806C235.545 195.983 240.723 197.393 243.804 194.955Z" fill="#0CBC8B"/>
<path d="M222.168 201.939C222.112 201.939 222.057 201.92 222.013 201.885C221.969 201.85 221.938 201.801 221.925 201.746L214.457 170.521C214.406 170.308 214.297 170.113 214.143 169.958C213.988 169.803 213.794 169.694 213.581 169.642C213.368 169.59 213.146 169.598 212.937 169.665C212.729 169.731 212.543 169.854 212.399 170.02L210.097 172.68C210.054 172.73 209.992 172.761 209.926 172.766C209.86 172.771 209.794 172.749 209.744 172.706C209.694 172.662 209.663 172.601 209.658 172.534C209.653 172.468 209.675 172.403 209.718 172.352L212.021 169.692C212.224 169.457 212.489 169.282 212.785 169.188C213.081 169.093 213.398 169.082 213.7 169.156C214.003 169.229 214.279 169.385 214.498 169.606C214.717 169.826 214.872 170.103 214.944 170.406L222.412 201.631C222.42 201.663 222.421 201.696 222.416 201.729C222.411 201.761 222.399 201.792 222.382 201.82C222.365 201.848 222.342 201.873 222.315 201.892C222.289 201.911 222.259 201.925 222.227 201.933C222.207 201.937 222.188 201.939 222.168 201.939Z" fill="#494949"/>
<path d="M219.415 179.616C220.322 174.366 217.92 169.568 214.048 168.898C210.177 168.229 206.302 171.942 205.394 177.192C204.486 182.441 206.889 187.24 210.761 187.91C214.632 188.579 218.507 184.866 219.415 179.616Z" fill="#0CBC8B"/>
<path d="M224.191 202.754C224.18 202.754 224.17 202.754 224.16 202.752C224.127 202.748 224.096 202.738 224.067 202.722C224.038 202.705 224.013 202.684 223.993 202.658C223.973 202.632 223.958 202.602 223.949 202.571C223.94 202.539 223.938 202.506 223.942 202.473L228.711 163.754C228.763 163.332 228.935 162.934 229.208 162.608C229.48 162.282 229.841 162.042 230.247 161.916C230.653 161.79 231.087 161.785 231.496 161.899C231.905 162.014 232.273 162.245 232.554 162.563L238.005 168.737C238.026 168.761 238.043 168.79 238.054 168.821C238.064 168.852 238.069 168.885 238.067 168.918C238.065 168.951 238.056 168.983 238.042 169.013C238.027 169.042 238.007 169.069 237.983 169.09C237.958 169.112 237.929 169.129 237.898 169.14C237.867 169.15 237.834 169.155 237.801 169.153C237.768 169.151 237.736 169.142 237.707 169.128C237.677 169.113 237.651 169.093 237.629 169.068L232.179 162.895C231.961 162.649 231.678 162.471 231.361 162.382C231.045 162.293 230.71 162.298 230.396 162.395C230.082 162.492 229.803 162.678 229.593 162.93C229.382 163.182 229.249 163.489 229.208 163.815L224.439 202.534C224.432 202.595 224.402 202.651 224.357 202.691C224.311 202.732 224.252 202.754 224.191 202.754Z" fill="#494949"/>
<path d="M243.595 172.168C245.496 168.73 243.259 163.852 238.597 161.273C233.935 158.695 228.614 159.391 226.712 162.829C224.81 166.268 227.048 171.145 231.71 173.724C236.372 176.303 241.693 175.606 243.595 172.168Z" fill="#0CBC8B"/>
<path opacity="0.2" d="M243.804 194.955C246.885 192.516 246.702 187.153 243.395 182.975C240.088 178.798 234.91 177.388 231.83 179.827C228.749 182.265 228.932 187.629 232.239 191.806C235.545 195.983 240.723 197.393 243.804 194.955Z" fill="white"/>
<path opacity="0.5" d="M219.415 179.616C220.322 174.366 217.92 169.568 214.048 168.898C210.177 168.229 206.302 171.942 205.394 177.192C204.486 182.441 206.889 187.24 210.761 187.91C214.632 188.579 218.507 184.866 219.415 179.616Z" fill="white"/>
<path opacity="0.5" d="M243.595 172.168C245.496 168.73 243.259 163.852 238.597 161.273C233.935 158.695 228.614 159.391 226.712 162.829C224.81 166.268 227.048 171.145 231.71 173.724C236.372 176.303 241.693 175.606 243.595 172.168Z" fill="white"/>
<path d="M230.29 235.608H218.091L216.069 196.576H232.312L230.29 235.608Z" fill="#292A2E"/>
<path opacity="0.3" d="M230.29 235.608H218.091L216.069 196.576H232.312L230.29 235.608Z" fill="white"/>
<path d="M243.804 195.08C243.785 195.08 243.767 195.075 243.75 195.067C243.733 195.059 243.718 195.047 243.706 195.032L231.731 179.904C231.721 179.891 231.713 179.877 231.709 179.861C231.704 179.845 231.703 179.828 231.705 179.812C231.707 179.796 231.712 179.78 231.72 179.765C231.728 179.751 231.739 179.738 231.752 179.728C231.764 179.718 231.779 179.71 231.795 179.706C231.811 179.701 231.827 179.7 231.844 179.702C231.86 179.704 231.876 179.709 231.89 179.717C231.905 179.725 231.917 179.736 231.928 179.749L243.903 194.877C243.923 194.903 243.933 194.936 243.929 194.968C243.925 195.001 243.909 195.031 243.883 195.052C243.86 195.07 243.833 195.079 243.804 195.08Z" fill="white"/>
<path d="M242.799 173.38C242.772 173.379 242.746 173.371 242.725 173.355L227.402 162.166C227.388 162.156 227.377 162.144 227.368 162.13C227.36 162.116 227.354 162.1 227.352 162.084C227.349 162.068 227.35 162.051 227.354 162.035C227.358 162.019 227.365 162.004 227.374 161.991C227.384 161.978 227.396 161.966 227.41 161.958C227.424 161.949 227.44 161.943 227.456 161.941C227.472 161.938 227.489 161.939 227.505 161.943C227.521 161.947 227.536 161.954 227.549 161.964L242.872 173.152C242.893 173.168 242.909 173.19 242.917 173.215C242.925 173.24 242.924 173.267 242.916 173.292C242.908 173.316 242.892 173.338 242.871 173.354C242.85 173.369 242.825 173.378 242.799 173.378V173.38Z" fill="white"/>
<path d="M210.137 187.747C210.127 187.747 210.116 187.745 210.105 187.743C210.073 187.734 210.046 187.713 210.029 187.684C210.012 187.655 210.008 187.621 210.016 187.589L214.895 169.313C214.904 169.282 214.925 169.256 214.953 169.24C214.982 169.224 215.015 169.219 215.047 169.228C215.078 169.236 215.105 169.257 215.122 169.285C215.139 169.313 215.144 169.346 215.136 169.378L210.258 187.654C210.251 187.681 210.236 187.704 210.214 187.721C210.192 187.738 210.165 187.747 210.137 187.747Z" fill="white"/>
<path d="M159.515 181.53H29.9944C28.2462 181.53 26.5696 180.836 25.3335 179.599C24.0973 178.363 23.4028 176.687 23.4028 174.939L27.9121 28.7285H170.366L166.107 174.939C166.107 176.687 165.412 178.363 164.176 179.599C162.94 180.836 161.263 181.53 159.515 181.53Z" fill="#292A2E"/>
<path opacity="0.9" d="M159.515 181.53H29.9944C28.2462 181.53 26.5696 180.836 25.3335 179.599C24.0973 178.363 23.4028 176.687 23.4028 174.939L27.9121 28.7285H170.366L166.107 174.939C166.107 176.687 165.412 178.363 164.176 179.599C162.94 180.836 161.263 181.53 159.515 181.53Z" fill="white"/>
<path d="M159.515 181.78H29.9942C28.1802 181.778 26.441 181.057 25.1583 179.774C23.8756 178.491 23.154 176.752 23.1519 174.938L27.6612 28.4775H170.616L166.357 174.938C166.355 176.752 165.634 178.491 164.351 179.774C163.068 181.057 161.329 181.778 159.515 181.78ZM28.1622 28.9786L23.6529 174.938C23.6548 176.619 24.3235 178.231 25.5124 179.42C26.7012 180.609 28.313 181.277 29.9942 181.279H159.515C161.196 181.277 162.808 180.608 163.997 179.42C165.186 178.231 165.854 176.619 165.856 174.938L170.115 28.9786H28.1622Z" fill="#292A2E"/>
<path d="M164.275 14.2314H34.7545C32.9405 14.2335 31.2013 14.955 29.9186 16.2377C28.6358 17.5204 27.9143 19.2595 27.9121 21.0736L27.6616 28.9791H170.616L171.117 21.0736C171.115 19.2595 170.394 17.5204 169.111 16.2377C167.828 14.955 166.089 14.2335 164.275 14.2314Z" fill="#0C0C0C"/>
<path d="M166.78 14.2314H35.7564C33.9424 14.2335 32.2032 14.955 30.9205 16.2377C29.6378 17.5204 28.9162 19.2595 28.9141 21.0736V28.9791H173.622V21.0736C173.62 19.2595 172.899 17.5204 171.616 16.2377C170.333 14.955 168.594 14.2335 166.78 14.2314Z" fill="#292A2E"/>
<path d="M29.1646 28.7285H173.372V177.444C173.372 179.192 172.677 180.868 171.441 182.105C170.205 183.341 168.529 184.035 166.78 184.035H35.7561C34.0079 184.035 32.3313 183.341 31.0952 182.105C29.859 180.868 29.1646 179.192 29.1646 177.444V28.7285Z" fill="white"/>
<path d="M166.78 184.285H35.7564C33.9424 184.283 32.2032 183.562 30.9205 182.279C29.6378 180.996 28.9162 179.257 28.9141 177.443V28.4775H173.622V177.443C173.62 179.257 172.899 180.996 171.616 182.279C170.333 183.562 168.594 184.283 166.78 184.285ZM29.4151 28.9786V177.443C29.417 179.124 30.0857 180.736 31.2746 181.925C32.4634 183.114 34.0752 183.782 35.7564 183.784H166.78C168.462 183.782 170.073 183.114 171.262 181.925C172.451 180.736 173.119 179.124 173.121 177.443V28.9786H29.4151Z" fill="#292A2E"/>
<path d="M46.4923 8.31152C44.9225 8.31331 43.4175 8.9377 42.3075 10.0477C41.1975 11.1577 40.5731 12.6627 40.5713 14.2325H41.0723C41.0721 13.1923 41.3712 12.174 41.9339 11.2992C42.4966 10.4244 43.2991 9.72991 44.2457 9.29874C45.1923 8.86756 46.243 8.71788 47.2724 8.86754C48.3017 9.0172 49.2663 9.45989 50.0509 10.1428C50.8355 10.8257 51.4071 11.7199 51.6973 12.7188C51.9876 13.7176 51.9844 14.7789 51.6879 15.7759C51.3915 16.773 50.8144 17.6637 50.0256 18.3417C49.2368 19.0197 48.2695 19.4565 47.2393 19.5998C47.1525 19.4209 47.0046 19.279 46.8222 19.1997C46.6399 19.1205 46.4352 19.1091 46.2452 19.1676C46.0552 19.2261 45.8924 19.3508 45.7863 19.5189C45.6802 19.687 45.6378 19.8876 45.6667 20.0843C45.6956 20.281 45.794 20.4608 45.944 20.5913C46.094 20.7218 46.2858 20.7943 46.4846 20.7956C46.6834 20.797 46.8762 20.7272 47.028 20.5988C47.1797 20.4703 47.2806 20.2919 47.3122 20.0956C48.7971 19.8883 50.148 19.1253 51.0923 17.9607C52.0366 16.7962 52.5038 15.3167 52.3998 13.821C52.2957 12.3253 51.628 10.9249 50.5316 9.90228C49.4351 8.87969 47.9915 8.31119 46.4923 8.31152Z" fill="#F4F4F4"/>
<path d="M161.965 14.2313C161.955 12.6676 161.326 11.1714 160.217 10.0693C159.108 8.9672 157.607 8.34863 156.044 8.34863C154.48 8.34863 152.98 8.9672 151.87 10.0693C150.761 11.1714 150.133 12.6676 150.123 14.2313H150.624C150.623 13.1912 150.922 12.1729 151.485 11.298C152.048 10.4232 152.85 9.72876 153.797 9.29758C154.744 8.86641 155.794 8.71672 156.824 8.86638C157.853 9.01605 158.818 9.45874 159.602 10.1416C160.387 10.8245 160.958 11.7187 161.249 12.7176C161.539 13.7164 161.536 14.7777 161.239 15.7748C160.943 16.7718 160.366 17.6625 159.577 18.3406C158.788 19.0186 157.821 19.4553 156.791 19.5986C156.704 19.4198 156.556 19.2779 156.374 19.1986C156.191 19.1193 155.986 19.1079 155.796 19.1665C155.606 19.225 155.444 19.3496 155.338 19.5177C155.231 19.6859 155.189 19.8864 155.218 20.0831C155.247 20.2798 155.345 20.4597 155.495 20.5902C155.645 20.7206 155.837 20.7931 156.036 20.7945C156.235 20.7958 156.427 20.726 156.579 20.5976C156.731 20.4692 156.832 20.2907 156.863 20.0944C158.277 19.8951 159.571 19.1923 160.509 18.1152C161.446 17.0381 161.963 15.659 161.965 14.2313Z" fill="#F4F4F4"/>
<path d="M146.314 14.2325C146.314 12.6621 145.69 11.1561 144.58 10.0457C143.469 8.93534 141.963 8.31152 140.393 8.31152C138.823 8.31152 137.317 8.93534 136.206 10.0457C135.096 11.1561 134.472 12.6621 134.472 14.2325H134.973C134.973 13.1924 135.272 12.1742 135.835 11.2995C136.398 10.4248 137.2 9.73042 138.147 9.2993C139.093 8.86817 140.144 8.7185 141.173 8.86813C142.202 9.01777 143.167 9.46039 143.951 10.1432C144.736 10.826 145.307 11.7201 145.598 12.7188C145.888 13.7176 145.885 14.7788 145.588 15.7757C145.292 16.7727 144.715 17.6634 143.927 18.3415C143.138 19.0195 142.171 19.4563 141.141 19.5998C141.054 19.4207 140.906 19.2786 140.724 19.1992C140.541 19.1197 140.336 19.1082 140.146 19.1667C139.956 19.2251 139.793 19.3497 139.687 19.5179C139.581 19.6861 139.538 19.8868 139.567 20.0836C139.596 20.2805 139.694 20.4605 139.844 20.5911C139.994 20.7218 140.186 20.7944 140.385 20.7958C140.584 20.7973 140.777 20.7274 140.929 20.599C141.081 20.4706 141.182 20.292 141.213 20.0956C142.627 19.8961 143.921 19.1933 144.858 18.1162C145.795 17.0391 146.312 15.6601 146.314 14.2325Z" fill="#F4F4F4"/>
<path d="M130.664 14.2313C130.654 12.6676 130.026 11.1714 128.917 10.0693C127.807 8.9672 126.307 8.34863 124.743 8.34863C123.18 8.34863 121.679 8.9672 120.57 10.0693C119.461 11.1714 118.832 12.6676 118.822 14.2313H119.323C119.323 13.1912 119.622 12.1729 120.185 11.298C120.748 10.4232 121.55 9.72876 122.497 9.29758C123.443 8.86641 124.494 8.71672 125.523 8.86638C126.553 9.01605 127.517 9.45874 128.302 10.1416C129.086 10.8245 129.658 11.7187 129.948 12.7176C130.239 13.7164 130.235 14.7777 129.939 15.7748C129.642 16.7718 129.065 17.6625 128.277 18.3406C127.488 19.0186 126.521 19.4553 125.49 19.5986C125.403 19.4198 125.256 19.2779 125.073 19.1986C124.891 19.1193 124.686 19.1079 124.496 19.1665C124.306 19.225 124.143 19.3496 124.037 19.5177C123.931 19.6859 123.889 19.8864 123.918 20.0831C123.947 20.2798 124.045 20.4597 124.195 20.5902C124.345 20.7206 124.537 20.7931 124.736 20.7945C124.934 20.7958 125.127 20.726 125.279 20.5976C125.431 20.4692 125.532 20.2907 125.563 20.0944C126.977 19.8951 128.271 19.1923 129.208 18.1152C130.145 17.0381 130.663 15.659 130.664 14.2313Z" fill="#F4F4F4"/>
<path d="M115.014 14.2325C115.014 13.4549 114.861 12.685 114.563 11.9666C114.266 11.2483 113.829 10.5955 113.28 10.0457C112.73 9.49592 112.077 9.05979 111.359 8.76223C110.64 8.46467 109.87 8.31152 109.093 8.31152C108.315 8.31152 107.545 8.46467 106.827 8.76223C106.109 9.05979 105.456 9.49592 104.906 10.0457C104.356 10.5955 103.92 11.2483 103.623 11.9666C103.325 12.685 103.172 13.4549 103.172 14.2325H103.673C103.673 13.1924 103.972 12.1742 104.535 11.2994C105.097 10.4247 105.9 9.73031 106.846 9.29919C107.793 8.86807 108.843 8.71842 109.873 8.86808C110.902 9.01775 111.866 9.46042 112.651 10.1433C113.436 10.8261 114.007 11.7203 114.297 12.719C114.588 13.7178 114.584 14.779 114.288 15.776C113.992 16.773 113.415 17.6636 112.626 18.3417C111.837 19.0197 110.87 19.4564 109.84 19.5998C109.753 19.4209 109.605 19.279 109.423 19.1997C109.24 19.1205 109.036 19.1091 108.846 19.1676C108.656 19.2261 108.493 19.3508 108.387 19.5189C108.281 19.687 108.238 19.8876 108.267 20.0843C108.296 20.281 108.395 20.4608 108.545 20.5913C108.695 20.7218 108.886 20.7943 109.085 20.7956C109.284 20.797 109.477 20.7272 109.629 20.5988C109.78 20.4703 109.881 20.2919 109.913 20.0956C111.326 19.8962 112.621 19.1934 113.558 18.1163C114.495 17.0392 115.012 15.6602 115.014 14.2325Z" fill="#F4F4F4"/>
<path d="M99.3641 14.2313C99.354 12.6676 98.7257 11.1714 97.6163 10.0693C96.507 8.9672 95.0068 8.34863 93.4431 8.34863C91.8793 8.34863 90.3791 8.9672 89.2698 10.0693C88.1605 11.1714 87.5321 12.6676 87.522 14.2313H88.023C88.0228 13.1912 88.3219 12.1729 88.8846 11.298C89.4473 10.4232 90.2498 9.72876 91.1964 9.29758C92.143 8.86641 93.1937 8.71672 94.223 8.86638C95.2524 9.01605 96.2169 9.45874 97.0016 10.1416C97.7862 10.8245 98.3578 11.7187 98.648 12.7176C98.9383 13.7164 98.935 14.7777 98.6386 15.7748C98.3422 16.7718 97.7651 17.6625 96.9763 18.3406C96.1875 19.0186 95.2202 19.4553 94.19 19.5986C94.1032 19.4198 93.9552 19.2779 93.7729 19.1986C93.5906 19.1193 93.3859 19.1079 93.1959 19.1665C93.0059 19.225 92.8431 19.3496 92.737 19.5177C92.6309 19.6859 92.5885 19.8864 92.6174 20.0831C92.6463 20.2798 92.7447 20.4597 92.8947 20.5902C93.0447 20.7206 93.2365 20.7931 93.4353 20.7945C93.6341 20.7958 93.8268 20.726 93.9786 20.5976C94.1304 20.4692 94.2312 20.2907 94.2629 20.0944C95.6766 19.8951 96.9709 19.1923 97.908 18.1152C98.8452 17.0381 99.3622 15.659 99.3641 14.2313Z" fill="#F4F4F4"/>
<path d="M83.7135 14.2325C83.7135 12.6621 83.0897 11.1561 81.9793 10.0457C80.8689 8.93534 79.3629 8.31152 77.7925 8.31152C76.2222 8.31152 74.7162 8.93534 73.6058 10.0457C72.4954 11.1561 71.8716 12.6621 71.8716 14.2325H72.3726C72.3724 13.1924 72.6716 12.1742 73.2343 11.2994C73.7969 10.4247 74.5995 9.73031 75.546 9.29919C76.4926 8.86807 77.5432 8.71842 78.5724 8.86808C79.6017 9.01775 80.5662 9.46042 81.3508 10.1433C82.1353 10.8261 82.7069 11.7203 82.9971 12.719C83.2874 13.7178 83.2842 14.779 82.9878 15.776C82.6914 16.773 82.1144 17.6636 81.3257 18.3417C80.5369 19.0197 79.5698 19.4564 78.5396 19.5998C78.4528 19.4209 78.3049 19.279 78.1225 19.1997C77.9402 19.1205 77.7355 19.1091 77.5455 19.1676C77.3555 19.2261 77.1927 19.3508 77.0866 19.5189C76.9805 19.687 76.9381 19.8876 76.967 20.0843C76.9959 20.281 77.0943 20.4608 77.2443 20.5913C77.3943 20.7218 77.5861 20.7943 77.7849 20.7956C77.9837 20.797 78.1765 20.7272 78.3282 20.5988C78.48 20.4703 78.5809 20.2919 78.6125 20.0956C80.0262 19.8962 81.3204 19.1934 82.2575 18.1163C83.1946 17.0392 83.7116 15.6602 83.7135 14.2325Z" fill="#F4F4F4"/>
<path d="M68.0638 14.2313C68.0537 12.6676 67.4254 11.1714 66.316 10.0693C65.2067 8.9672 63.7065 8.34863 62.1428 8.34863C60.579 8.34863 59.0788 8.9672 57.9695 10.0693C56.8602 11.1714 56.2319 12.6676 56.2217 14.2313H56.7227C56.7225 13.1912 57.0216 12.1729 57.5843 11.298C58.147 10.4232 58.9495 9.72876 59.8961 9.29758C60.8427 8.86641 61.8934 8.71672 62.9228 8.86638C63.9521 9.01605 64.9167 9.45874 65.7013 10.1416C66.4859 10.8245 67.0575 11.7187 67.3477 12.7176C67.638 13.7164 67.6347 14.7777 67.3383 15.7748C67.0419 16.7718 66.4648 17.6625 65.676 18.3406C64.8872 19.0186 63.9199 19.4553 62.8897 19.5986C62.8029 19.4198 62.655 19.2779 62.4726 19.1986C62.2903 19.1193 62.0856 19.1079 61.8956 19.1665C61.7056 19.225 61.5428 19.3496 61.4367 19.5177C61.3306 19.6859 61.2882 19.8864 61.3171 20.0831C61.346 20.2798 61.4444 20.4597 61.5944 20.5902C61.7444 20.7206 61.9362 20.7931 62.135 20.7945C62.3338 20.7958 62.5265 20.726 62.6783 20.5976C62.8301 20.4692 62.931 20.2907 62.9626 20.0944C64.3763 19.8951 65.6706 19.1923 66.6077 18.1152C67.5449 17.0381 68.0619 15.659 68.0638 14.2313Z" fill="#F4F4F4"/>
<g opacity="0.6">
<path d="M46.4923 8.31152C44.9225 8.31331 43.4175 8.9377 42.3075 10.0477C41.1975 11.1577 40.5731 12.6627 40.5713 14.2325H41.0723C41.0721 13.1923 41.3712 12.174 41.9339 11.2992C42.4966 10.4244 43.2991 9.72991 44.2457 9.29874C45.1923 8.86756 46.243 8.71788 47.2724 8.86754C48.3017 9.0172 49.2663 9.45989 50.0509 10.1428C50.8355 10.8257 51.4071 11.7199 51.6973 12.7188C51.9876 13.7176 51.9844 14.7789 51.6879 15.7759C51.3915 16.773 50.8144 17.6637 50.0256 18.3417C49.2368 19.0197 48.2695 19.4565 47.2393 19.5998C47.1525 19.4209 47.0046 19.279 46.8222 19.1997C46.6399 19.1205 46.4352 19.1091 46.2452 19.1676C46.0552 19.2261 45.8924 19.3508 45.7863 19.5189C45.6802 19.687 45.6378 19.8876 45.6667 20.0843C45.6956 20.281 45.794 20.4608 45.944 20.5913C46.094 20.7218 46.2858 20.7943 46.4846 20.7956C46.6834 20.797 46.8762 20.7272 47.028 20.5988C47.1797 20.4703 47.2806 20.2919 47.3122 20.0956C48.7971 19.8883 50.148 19.1253 51.0923 17.9607C52.0366 16.7962 52.5038 15.3167 52.3998 13.821C52.2957 12.3253 51.628 10.9249 50.5316 9.90228C49.4351 8.87969 47.9915 8.31119 46.4923 8.31152Z" fill="#292A2E"/>
<path d="M161.965 14.2313C161.955 12.6676 161.326 11.1714 160.217 10.0693C159.108 8.9672 157.607 8.34863 156.044 8.34863C154.48 8.34863 152.98 8.9672 151.87 10.0693C150.761 11.1714 150.133 12.6676 150.123 14.2313H150.624C150.623 13.1912 150.922 12.1729 151.485 11.298C152.048 10.4232 152.85 9.72876 153.797 9.29758C154.744 8.86641 155.794 8.71672 156.824 8.86638C157.853 9.01605 158.818 9.45874 159.602 10.1416C160.387 10.8245 160.958 11.7187 161.249 12.7176C161.539 13.7164 161.536 14.7777 161.239 15.7748C160.943 16.7718 160.366 17.6625 159.577 18.3406C158.788 19.0186 157.821 19.4553 156.791 19.5986C156.704 19.4198 156.556 19.2779 156.374 19.1986C156.191 19.1193 155.986 19.1079 155.796 19.1665C155.606 19.225 155.444 19.3496 155.338 19.5177C155.231 19.6859 155.189 19.8864 155.218 20.0831C155.247 20.2798 155.345 20.4597 155.495 20.5902C155.645 20.7206 155.837 20.7931 156.036 20.7945C156.235 20.7958 156.427 20.726 156.579 20.5976C156.731 20.4692 156.832 20.2907 156.863 20.0944C158.277 19.8951 159.571 19.1923 160.509 18.1152C161.446 17.0381 161.963 15.659 161.965 14.2313Z" fill="#292A2E"/>
<path d="M146.314 14.2325C146.314 12.6621 145.69 11.1561 144.58 10.0457C143.469 8.93534 141.963 8.31152 140.393 8.31152C138.823 8.31152 137.317 8.93534 136.206 10.0457C135.096 11.1561 134.472 12.6621 134.472 14.2325H134.973C134.973 13.1924 135.272 12.1742 135.835 11.2995C136.398 10.4248 137.2 9.73042 138.147 9.2993C139.093 8.86817 140.144 8.7185 141.173 8.86813C142.202 9.01777 143.167 9.46039 143.951 10.1432C144.736 10.826 145.307 11.7201 145.598 12.7188C145.888 13.7176 145.885 14.7788 145.588 15.7757C145.292 16.7727 144.715 17.6634 143.927 18.3415C143.138 19.0195 142.171 19.4563 141.141 19.5998C141.054 19.4207 140.906 19.2786 140.724 19.1992C140.541 19.1197 140.336 19.1082 140.146 19.1667C139.956 19.2251 139.793 19.3497 139.687 19.5179C139.581 19.6861 139.538 19.8868 139.567 20.0836C139.596 20.2805 139.694 20.4605 139.844 20.5911C139.994 20.7218 140.186 20.7944 140.385 20.7958C140.584 20.7973 140.777 20.7274 140.929 20.599C141.081 20.4706 141.182 20.292 141.213 20.0956C142.627 19.8961 143.921 19.1933 144.858 18.1162C145.795 17.0391 146.312 15.6601 146.314 14.2325Z" fill="#292A2E"/>
<path d="M130.664 14.2313C130.654 12.6676 130.026 11.1714 128.917 10.0693C127.807 8.9672 126.307 8.34863 124.743 8.34863C123.18 8.34863 121.679 8.9672 120.57 10.0693C119.461 11.1714 118.832 12.6676 118.822 14.2313H119.323C119.323 13.1912 119.622 12.1729 120.185 11.298C120.748 10.4232 121.55 9.72876 122.497 9.29758C123.443 8.86641 124.494 8.71672 125.523 8.86638C126.553 9.01605 127.517 9.45874 128.302 10.1416C129.086 10.8245 129.658 11.7187 129.948 12.7176C130.239 13.7164 130.235 14.7777 129.939 15.7748C129.642 16.7718 129.065 17.6625 128.277 18.3406C127.488 19.0186 126.521 19.4553 125.49 19.5986C125.403 19.4198 125.256 19.2779 125.073 19.1986C124.891 19.1193 124.686 19.1079 124.496 19.1665C124.306 19.225 124.143 19.3496 124.037 19.5177C123.931 19.6859 123.889 19.8864 123.918 20.0831C123.947 20.2798 124.045 20.4597 124.195 20.5902C124.345 20.7206 124.537 20.7931 124.736 20.7945C124.934 20.7958 125.127 20.726 125.279 20.5976C125.431 20.4692 125.532 20.2907 125.563 20.0944C126.977 19.8951 128.271 19.1923 129.208 18.1152C130.145 17.0381 130.663 15.659 130.664 14.2313Z" fill="#292A2E"/>
<path d="M115.014 14.2325C115.014 13.4549 114.861 12.685 114.563 11.9666C114.266 11.2483 113.829 10.5955 113.28 10.0457C112.73 9.49592 112.077 9.05979 111.359 8.76223C110.64 8.46467 109.87 8.31152 109.093 8.31152C108.315 8.31152 107.545 8.46467 106.827 8.76223C106.109 9.05979 105.456 9.49592 104.906 10.0457C104.356 10.5955 103.92 11.2483 103.623 11.9666C103.325 12.685 103.172 13.4549 103.172 14.2325H103.673C103.673 13.1924 103.972 12.1742 104.535 11.2994C105.097 10.4247 105.9 9.73031 106.846 9.29919C107.793 8.86807 108.843 8.71842 109.873 8.86808C110.902 9.01775 111.866 9.46042 112.651 10.1433C113.436 10.8261 114.007 11.7203 114.297 12.719C114.588 13.7178 114.584 14.779 114.288 15.776C113.992 16.773 113.415 17.6636 112.626 18.3417C111.837 19.0197 110.87 19.4564 109.84 19.5998C109.753 19.4209 109.605 19.279 109.423 19.1997C109.24 19.1205 109.036 19.1091 108.846 19.1676C108.656 19.2261 108.493 19.3508 108.387 19.5189C108.281 19.687 108.238 19.8876 108.267 20.0843C108.296 20.281 108.395 20.4608 108.545 20.5913C108.695 20.7218 108.886 20.7943 109.085 20.7956C109.284 20.797 109.477 20.7272 109.629 20.5988C109.78 20.4703 109.881 20.2919 109.913 20.0956C111.326 19.8962 112.621 19.1934 113.558 18.1163C114.495 17.0392 115.012 15.6602 115.014 14.2325Z" fill="#292A2E"/>
<path d="M99.3641 14.2313C99.354 12.6676 98.7257 11.1714 97.6163 10.0693C96.507 8.9672 95.0068 8.34863 93.4431 8.34863C91.8793 8.34863 90.3791 8.9672 89.2698 10.0693C88.1605 11.1714 87.5321 12.6676 87.522 14.2313H88.023C88.0228 13.1912 88.3219 12.1729 88.8846 11.298C89.4473 10.4232 90.2498 9.72876 91.1964 9.29758C92.143 8.86641 93.1937 8.71672 94.223 8.86638C95.2524 9.01605 96.2169 9.45874 97.0016 10.1416C97.7862 10.8245 98.3578 11.7187 98.648 12.7176C98.9383 13.7164 98.935 14.7777 98.6386 15.7748C98.3422 16.7718 97.7651 17.6625 96.9763 18.3406C96.1875 19.0186 95.2202 19.4553 94.19 19.5986C94.1032 19.4198 93.9552 19.2779 93.7729 19.1986C93.5906 19.1193 93.3859 19.1079 93.1959 19.1665C93.0059 19.225 92.8431 19.3496 92.737 19.5177C92.6309 19.6859 92.5885 19.8864 92.6174 20.0831C92.6463 20.2798 92.7447 20.4597 92.8947 20.5902C93.0447 20.7206 93.2365 20.7931 93.4353 20.7945C93.6341 20.7958 93.8268 20.726 93.9786 20.5976C94.1304 20.4692 94.2312 20.2907 94.2629 20.0944C95.6766 19.8951 96.9709 19.1923 97.908 18.1152C98.8452 17.0381 99.3622 15.659 99.3641 14.2313Z" fill="#292A2E"/>
<path d="M83.7135 14.2325C83.7135 12.6621 83.0897 11.1561 81.9793 10.0457C80.8689 8.93534 79.3629 8.31152 77.7925 8.31152C76.2222 8.31152 74.7162 8.93534 73.6058 10.0457C72.4954 11.1561 71.8716 12.6621 71.8716 14.2325H72.3726C72.3724 13.1924 72.6716 12.1742 73.2343 11.2994C73.7969 10.4247 74.5995 9.73031 75.546 9.29919C76.4926 8.86807 77.5432 8.71842 78.5724 8.86808C79.6017 9.01775 80.5662 9.46042 81.3508 10.1433C82.1353 10.8261 82.7069 11.7203 82.9971 12.719C83.2874 13.7178 83.2842 14.779 82.9878 15.776C82.6914 16.773 82.1144 17.6636 81.3257 18.3417C80.5369 19.0197 79.5698 19.4564 78.5396 19.5998C78.4528 19.4209 78.3049 19.279 78.1225 19.1997C77.9402 19.1205 77.7355 19.1091 77.5455 19.1676C77.3555 19.2261 77.1927 19.3508 77.0866 19.5189C76.9805 19.687 76.9381 19.8876 76.967 20.0843C76.9959 20.281 77.0943 20.4608 77.2443 20.5913C77.3943 20.7218 77.5861 20.7943 77.7849 20.7956C77.9837 20.797 78.1765 20.7272 78.3282 20.5988C78.48 20.4703 78.5809 20.2919 78.6125 20.0956C80.0262 19.8962 81.3204 19.1934 82.2575 18.1163C83.1946 17.0392 83.7116 15.6602 83.7135 14.2325Z" fill="#292A2E"/>
<path d="M68.0638 14.2313C68.0537 12.6676 67.4254 11.1714 66.316 10.0693C65.2067 8.9672 63.7065 8.34863 62.1428 8.34863C60.579 8.34863 59.0788 8.9672 57.9695 10.0693C56.8602 11.1714 56.2319 12.6676 56.2217 14.2313H56.7227C56.7225 13.1912 57.0216 12.1729 57.5843 11.298C58.147 10.4232 58.9495 9.72876 59.8961 9.29758C60.8427 8.86641 61.8934 8.71672 62.9228 8.86638C63.9521 9.01605 64.9167 9.45874 65.7013 10.1416C66.4859 10.8245 67.0575 11.7187 67.3477 12.7176C67.638 13.7164 67.6347 14.7777 67.3383 15.7748C67.0419 16.7718 66.4648 17.6625 65.676 18.3406C64.8872 19.0186 63.9199 19.4553 62.8897 19.5986C62.8029 19.4198 62.655 19.2779 62.4726 19.1986C62.2903 19.1193 62.0856 19.1079 61.8956 19.1665C61.7056 19.225 61.5428 19.3496 61.4367 19.5177C61.3306 19.6859 61.2882 19.8864 61.3171 20.0831C61.346 20.2798 61.4444 20.4597 61.5944 20.5902C61.7444 20.7206 61.9362 20.7931 62.135 20.7945C62.3338 20.7958 62.5265 20.726 62.6783 20.5976C62.8301 20.4692 62.931 20.2907 62.9626 20.0944C64.3763 19.8951 65.6706 19.1923 66.6077 18.1152C67.5449 17.0381 68.0619 15.659 68.0638 14.2313Z" fill="#292A2E"/>
</g>
<g opacity="0.72">
<path d="M159.683 44.962H42.1724C42.106 44.962 42.0422 44.9356 41.9952 44.8886C41.9483 44.8416 41.9219 44.7779 41.9219 44.7115C41.9219 44.645 41.9483 44.5813 41.9952 44.5343C42.0422 44.4873 42.106 44.4609 42.1724 44.4609H159.683C159.75 44.4609 159.813 44.4873 159.86 44.5343C159.907 44.5813 159.934 44.645 159.934 44.7115C159.934 44.7779 159.907 44.8416 159.86 44.8886C159.813 44.9356 159.75 44.962 159.683 44.962Z" fill="#292A2E"/>
</g>
<g opacity="0.72">
<path d="M159.683 59.1661H42.1724C42.106 59.1661 42.0422 59.1397 41.9952 59.0927C41.9483 59.0457 41.9219 58.982 41.9219 58.9156C41.9219 58.8491 41.9483 58.7854 41.9952 58.7384C42.0422 58.6914 42.106 58.665 42.1724 58.665H159.683C159.75 58.665 159.813 58.6914 159.86 58.7384C159.907 58.7854 159.934 58.8491 159.934 58.9156C159.934 58.982 159.907 59.0457 159.86 59.0927C159.813 59.1397 159.75 59.1661 159.683 59.1661Z" fill="#292A2E"/>
</g>
<g opacity="0.72">
<path d="M93.378 73.3682H42.1724C42.106 73.3682 42.0422 73.3418 41.9952 73.2948C41.9483 73.2479 41.9219 73.1841 41.9219 73.1177C41.9219 73.0513 41.9483 72.9875 41.9952 72.9406C42.0422 72.8936 42.106 72.8672 42.1724 72.8672H93.378C93.4444 72.8672 93.5081 72.8936 93.5551 72.9406C93.6021 72.9875 93.6285 73.0513 93.6285 73.1177C93.6285 73.1841 93.6021 73.2479 93.5551 73.2948C93.5081 73.3418 93.4444 73.3682 93.378 73.3682Z" fill="#292A2E"/>
</g>
<path d="M215.657 119.001C216.765 119.001 217.857 118.733 218.839 118.22C219.821 117.708 220.665 116.965 221.299 116.056C221.932 115.147 222.337 114.099 222.478 113C222.619 111.901 222.493 110.784 222.109 109.744C221.72 108.689 212.596 84.5282 210.859 80.0518L197.998 85.2625C198.975 87.7797 202.513 97.3204 205.356 105.006L200.633 104.493L199.147 118.168L214.913 118.962C215.16 118.988 215.409 119.001 215.657 119.001Z" fill="#367CFF"/>
<path d="M102.556 85.0502L107.309 68.0557L219.316 97.9756L214.562 114.97L102.556 85.0502Z" fill="#367CFF"/>
<path opacity="0.5" d="M102.556 85.0502L107.309 68.0557L219.316 97.9756L214.562 114.97L102.556 85.0502Z" fill="white"/>
<path d="M226.857 118.41L231.61 101.415L219.317 97.9764L214.563 114.971L226.857 118.41Z" fill="#262626"/>
<path d="M102.555 85.0495C102.555 85.0495 99.3294 81.4342 96.4485 78.1853C94.1643 75.6082 92.098 73.2614 92.0346 73.1329C91.9713 73.0044 95.0747 71.9535 98.5027 70.8447C102.668 69.4964 107.31 68.0557 107.31 68.0557L102.555 85.0495Z" fill="#367CFF"/>
<path opacity="0.9" d="M102.555 85.0495C102.555 85.0495 99.3294 81.4342 96.4485 78.1853C94.1643 75.6082 92.098 73.2614 92.0346 73.1329C91.9713 73.0044 95.0747 71.9535 98.5027 70.8447C102.668 69.4964 107.31 68.0557 107.31 68.0557L102.555 85.0495Z" fill="white"/>
<path d="M96.4485 78.1854C94.1643 75.6083 92.098 73.2615 92.0346 73.1329C91.9713 73.0044 95.0747 71.9535 98.5027 70.8447L96.4485 78.1854Z" fill="#262626"/>
<path d="M104.068 79.7676L216.104 109.371L215.89 110.147L103.854 80.5439L104.068 79.7676Z" fill="white"/>
<path d="M105.925 73.1182L217.962 102.721L217.747 103.497L105.711 73.8943L105.925 73.1182Z" fill="white"/>
<path d="M201.058 225.014C201.058 225.014 199.926 230.876 194.437 231.204C188.947 231.532 190.138 235.904 190.138 235.904H211.116V225.423L201.058 225.014Z" fill="#367CFF"/>
<path d="M207.528 118.061C207.528 118.061 207.462 116.298 207.476 120.297C207.528 135.21 207.786 152.244 208.419 162.212C209.435 178.236 212.041 228.756 212.041 228.756L198.256 228.64L184.896 117.455L207.528 118.061Z" fill="#262626"/>
<path d="M191.961 135.647C191.961 135.647 191.39 146.47 191.285 149.011C191.04 154.886 190.954 160.97 190.954 167.867L188.782 149.785C188.782 149.785 190.371 144.118 191.961 135.647Z" fill="#0A0A0A"/>
<path d="M176.517 225.014C176.517 225.014 175.386 230.876 169.896 231.204C164.406 231.532 165.597 235.904 165.597 235.904H186.575V225.423L176.517 225.014Z" fill="#367CFF"/>
<path d="M169.842 119.221C169.842 119.221 168.621 170.19 168.8 172.681L173.926 228.371L187.484 228.621L186.162 170.666C186.162 170.666 187.094 154.679 190.957 139.834C192.933 132.215 194.123 124.414 194.506 116.552L169.842 119.221Z" fill="#262626"/>
<path d="M207.678 118.06L207.723 118.063C207.723 118.063 207.691 117.194 207.678 118.06Z" fill="#333333"/>
<path d="M167.902 90.9286C168.186 94.2685 169.569 115.106 169.842 119.22H207.513C207.726 115.509 207.762 99.4332 208.569 92.1774C209.339 85.2537 211.77 81.6387 210.662 79.592C208.852 76.2466 203.905 74.3134 200.532 73.8567C198.473 73.5778 195.375 73.3779 195.375 73.3779C195.375 73.3779 195.113 78.6841 188.858 78.9795C180.344 79.3803 180.913 73.3779 180.871 73.3779C179.493 73.3779 171.864 74.159 170.186 75.6441C165.674 79.6376 167.298 83.8508 167.902 90.9286Z" fill="#367CFF"/>
<path d="M176.383 72.9195C176.425 72.914 177.581 77.2625 186.599 76.5858C192.842 76.1181 194.365 71.8686 194.507 71.8686C193.834 71.7256 192.741 71.577 192.442 71.4177C191.459 70.8896 190.743 70.2465 190.382 68.8667C190.1 67.7874 189.957 63.6331 189.957 61.5488L180.35 63.7075C180.484 66.0586 181.421 71.5094 178.136 72.4741C177.59 72.6334 177.001 72.7802 176.383 72.9195Z" fill="#E98862"/>
<path d="M180.682 68.3302C184.469 68.629 189.334 67.03 190.258 61.9773L191.092 57.4179C192.016 52.3653 190.111 47.7838 185.355 46.9138C180.598 46.0437 176.293 49.4893 175.369 54.542L175 56.5604C174.644 58.4994 173.925 67.7971 180.682 68.3302Z" fill="#E98862"/>
<path d="M177.171 63.6914C177.851 60.2758 178.162 57.9969 178.126 55.5927C177.169 53.9142 177.421 51.9852 177.638 51.1525C176.979 51.5715 176.204 51.7703 175.424 51.7204C175.424 51.7204 177.007 45.3653 182.388 43.6553C183.378 43.27 185.905 42.7835 189.26 43.2437C192.114 43.635 199.148 45.7689 200.153 53.6885V53.693C200.187 53.9556 200.862 61.2524 202.208 64.7533C204.018 69.4598 206.559 70.922 206.495 76.3522C206.412 83.3369 193.571 84.2666 185.827 83.7442C178.083 83.2219 173.759 80.6749 173.702 75.6413C173.642 70.0014 175.811 70.5252 177.171 63.6914Z" fill="#0A0A0A"/>
<path d="M208.318 92.1698L207.393 119.217L207.643 119.225L208.569 92.1784L208.318 92.1698Z" fill="#0C0C0C"/>
<path d="M132.556 92.7033L128.834 87.3776C128.752 87.2606 128.647 87.1619 128.525 87.0878C128.403 87.0137 128.267 86.9658 128.125 86.9472C127.984 86.9286 127.84 86.9397 127.703 86.9798C127.566 87.0199 127.438 87.088 127.329 87.1799C127.133 87.3559 127.009 87.5985 126.981 87.8607C126.953 88.123 127.024 88.3862 127.179 88.5994L127.977 89.7412L123.818 87.3022C123.361 87.0231 122.621 86.973 122.34 87.5071C122.219 87.7055 122.169 87.9391 122.198 88.1697C122.227 88.4003 122.333 88.6143 122.5 88.7767C122.496 88.7803 122.492 88.7844 122.489 88.7888C122.488 88.7924 122.487 88.7962 122.485 88.8L121.78 88.3694C121.649 88.2897 121.502 88.2402 121.35 88.2245C121.198 88.2088 121.044 88.2273 120.899 88.2786C120.755 88.3298 120.624 88.4127 120.516 88.521C120.408 88.6293 120.325 88.7604 120.274 88.9047C120.198 89.1337 120.203 89.3818 120.288 89.6075C120.373 89.8332 120.533 90.0228 120.741 90.1445L121.042 90.3277C121.041 90.3388 121.041 90.3501 121.044 90.361C120.812 90.2842 120.561 90.2925 120.335 90.3843C120.108 90.4761 119.922 90.6455 119.81 90.862C119.693 91.1022 119.672 91.3774 119.749 91.6327C119.827 91.8881 119.998 92.1048 120.228 92.2399L120.974 92.6951C120.962 92.6954 120.95 92.6982 120.939 92.7033C120.928 92.7084 120.918 92.7157 120.91 92.7247C120.902 92.7337 120.896 92.7442 120.892 92.7557C120.888 92.7671 120.887 92.7792 120.888 92.7913C120.663 92.7804 120.44 92.8438 120.255 92.9716C120.069 93.0994 119.931 93.2846 119.861 93.4987C119.791 93.7254 119.801 93.9687 119.887 94.1893C119.974 94.41 120.132 94.595 120.337 94.7145L126.63 98.5544C127.51 99.0915 128.531 99.3535 129.561 99.3068C130.592 99.26 131.584 98.9067 132.413 98.2921C133.127 97.762 133.606 96.9744 133.749 96.0967C133.891 95.2189 133.686 94.3201 133.177 93.5912L132.556 92.7033Z" fill="#E98862"/>
<g opacity="0.2">
<path d="M126.605 91.2122C126.592 91.2332 126.572 91.2484 126.547 91.2543C126.523 91.2602 126.498 91.2564 126.477 91.2437L122.525 88.9192C122.504 88.906 122.489 88.8852 122.484 88.8613C122.478 88.8374 122.482 88.8122 122.494 88.791C122.507 88.7697 122.527 88.7542 122.55 88.7476C122.574 88.741 122.6 88.7439 122.621 88.7556L126.573 91.0804C126.584 91.0867 126.593 91.0951 126.601 91.105C126.608 91.115 126.614 91.1263 126.617 91.1383C126.62 91.1504 126.621 91.1629 126.619 91.1753C126.617 91.1876 126.613 91.1995 126.607 91.2102L126.605 91.2122Z" fill="#0C0C0C"/>
</g>
<g opacity="0.2">
<path d="M125.628 92.9823C125.615 93.0033 125.594 93.0184 125.57 93.0243C125.546 93.0302 125.521 93.0265 125.499 93.0138L121.09 90.4197C121.079 90.4134 121.07 90.405 121.063 90.3951C121.055 90.3851 121.05 90.3738 121.046 90.3617C121.043 90.3496 121.043 90.337 121.044 90.3247C121.046 90.3123 121.05 90.3005 121.057 90.2897C121.07 90.2687 121.091 90.2535 121.115 90.2473C121.139 90.241 121.165 90.2442 121.186 90.2561L125.595 92.8502C125.617 92.8631 125.633 92.884 125.639 92.9083C125.645 92.9326 125.642 92.9585 125.629 92.9803L125.628 92.9823Z" fill="#0C0C0C"/>
</g>
<g opacity="0.2">
<path d="M124.582 94.9069C124.569 94.9279 124.548 94.943 124.524 94.9489C124.5 94.9549 124.474 94.9512 124.453 94.9387L120.935 92.8694C120.914 92.8562 120.9 92.8354 120.894 92.8115C120.888 92.7876 120.892 92.7624 120.904 92.7412C120.917 92.7199 120.937 92.7044 120.961 92.6978C120.984 92.6912 121.01 92.6941 121.031 92.7058L124.549 94.7751C124.56 94.7814 124.569 94.7898 124.577 94.7998C124.584 94.8097 124.59 94.8211 124.593 94.8331C124.596 94.8452 124.597 94.8578 124.595 94.8701C124.593 94.8825 124.589 94.8944 124.583 94.9051L124.582 94.9069Z" fill="#0C0C0C"/>
</g>
<path d="M168.785 77.251L153.166 100.661L133.445 89.2264L126.323 100.892L151.584 117.115C153.205 118.154 155.168 118.515 157.051 118.121C158.935 117.728 160.589 116.611 161.658 115.011L161.752 114.871L181.288 85.5932L168.785 77.251Z" fill="#367CFF"/>
<path d="M168.833 104.552C168.81 104.552 168.788 104.546 168.768 104.534C168.749 104.523 168.733 104.506 168.722 104.486C168.712 104.466 168.707 104.444 168.708 104.421C168.709 104.398 168.716 104.376 168.729 104.357L172.848 98.2253C172.867 98.1988 172.895 98.1807 172.927 98.1749C172.959 98.169 172.992 98.1759 173.019 98.1941C173.046 98.2123 173.065 98.2403 173.072 98.2721C173.079 98.304 173.073 98.3373 173.056 98.3648L168.937 104.497C168.925 104.514 168.91 104.528 168.892 104.538C168.873 104.547 168.853 104.552 168.833 104.552Z" fill="#0C0C0C"/>
<path d="M238.366 236.097H2.51152C2.46016 236.097 2.41091 236.077 2.37459 236.041C2.33827 236.004 2.31787 235.955 2.31787 235.904C2.31787 235.852 2.33827 235.803 2.37459 235.767C2.41091 235.73 2.46016 235.71 2.51152 235.71H238.366C238.418 235.71 238.467 235.73 238.503 235.767C238.54 235.803 238.56 235.852 238.56 235.904C238.56 235.955 238.54 236.004 238.503 236.041C238.467 236.077 238.418 236.097 238.366 236.097Z" fill="#3F3F3F"/>
</g>
<defs>
<clipPath id="clip0_457_1944">
<rect width="246" height="236.098" fill="white"/>
</clipPath>
</defs>
</svg>
