<svg width="40" height="40" viewBox="0 0 40 40" fill="none" xmlns="http://www.w3.org/2000/svg">
<path d="M32.2917 14.1667C33.3093 14.1669 34.3062 14.4538 35.1683 14.9944C36.0304 15.5351 36.7228 16.3077 37.1661 17.2236C37.6094 18.1396 37.7858 19.1619 37.6749 20.1735C37.564 21.185 37.1705 22.1449 36.5393 22.9431C35.9081 23.7413 35.0648 24.3456 34.1061 24.6867C33.1474 25.0278 32.1119 25.0919 31.1184 24.8717C30.1249 24.6515 29.2135 24.1559 28.4887 23.4417C27.7638 22.7275 27.2548 21.8235 27.02 20.8333H22.02C21.8938 21.6418 21.5863 22.4111 21.1204 23.0837C20.6545 23.7563 20.0424 24.3147 19.33 24.7171C18.6175 25.1194 17.8232 25.3552 17.0067 25.4068C16.1901 25.4584 15.3724 25.3245 14.615 25.015L12.0233 29.6C13.0399 30.4538 13.7075 31.6511 13.8995 32.9646C14.0914 34.2782 13.7943 35.6165 13.0646 36.7254C12.3349 37.8344 11.2233 38.6367 9.94101 38.9801C8.65871 39.3236 7.29494 39.1841 6.10865 38.5883C4.92237 37.9925 3.99618 36.9819 3.50594 35.7482C3.0157 34.5146 2.99556 33.1438 3.44933 31.8963C3.90311 30.6488 4.79921 29.6113 5.96747 28.9809C7.13574 28.3505 8.49483 28.1711 9.78667 28.4767L12.5733 23.5483C11.7183 22.5641 11.2483 21.3038 11.25 20C11.25 18.4883 11.8683 17.1217 12.8667 16.14L10.195 11.41C9.3826 11.6693 8.52049 11.7333 7.67872 11.5967C6.83695 11.4602 6.03925 11.1271 5.35043 10.6243C4.66161 10.1216 4.10109 9.46346 3.71441 8.7034C3.32773 7.94334 3.12579 7.10278 3.125 6.25001C3.12501 5.35705 3.34578 4.47793 3.76766 3.69091C4.18955 2.90389 4.79947 2.23338 5.54313 1.73905C6.28679 1.24472 7.14113 0.94192 8.03011 0.857586C8.91908 0.773252 9.81512 0.910006 10.6385 1.25568C11.4618 1.60135 12.1869 2.14521 12.7493 2.83886C13.3116 3.53251 13.6938 4.35443 13.8617 5.23147C14.0296 6.1085 13.9781 7.01345 13.7117 7.86577C13.4454 8.71808 12.9724 9.49133 12.335 10.1167L15.0067 14.8433C16.3732 14.4031 17.8586 14.5235 19.1365 15.1779C20.4144 15.8323 21.3802 16.9672 21.8217 18.3333H27.02C27.3014 17.1468 27.975 16.09 28.9317 15.3338C29.8884 14.5776 31.0722 14.1664 32.2917 14.1667ZM16.6667 17.0833C16.2779 17.0739 15.8912 17.1424 15.5292 17.2846C15.1673 17.4269 14.8375 17.6401 14.5591 17.9117C14.2808 18.1833 14.0596 18.5078 13.9085 18.8661C13.7574 19.2245 13.6796 19.6094 13.6795 19.9983C13.6793 20.3872 13.757 20.7722 13.9079 21.1306C14.0587 21.4891 14.2798 21.8137 14.5579 22.0855C14.8361 22.3572 15.1658 22.5706 15.5277 22.7131C15.8895 22.8555 16.2762 22.9242 16.665 22.915C17.4263 22.897 18.1503 22.582 18.6824 22.0374C19.2146 21.4927 19.5126 20.7615 19.5128 20C19.513 19.2385 19.2154 18.5072 18.6836 17.9622C18.1518 17.4172 17.4279 17.1018 16.6667 17.0833ZM8.54167 3.33335C7.76812 3.33335 7.02625 3.64064 6.47927 4.18762C5.93229 4.7346 5.625 5.47647 5.625 6.25001C5.625 7.02356 5.93229 7.76543 6.47927 8.31241C7.02625 8.85939 7.76812 9.16668 8.54167 9.16668C9.31522 9.16668 10.0571 8.85939 10.6041 8.31241C11.151 7.76543 11.4583 7.02356 11.4583 6.25001C11.4583 5.47647 11.151 4.7346 10.6041 4.18762C10.0571 3.64064 9.31522 3.33335 8.54167 3.33335ZM29.375 19.5833C29.375 20.3569 29.6823 21.0988 30.2293 21.6457C30.7763 22.1927 31.5181 22.5 32.2917 22.5C33.0652 22.5 33.8071 22.1927 34.3541 21.6457C34.901 21.0988 35.2083 20.3569 35.2083 19.5833C35.2083 18.8098 34.901 18.0679 34.3541 17.521C33.8071 16.974 33.0652 16.6667 32.2917 16.6667C31.5181 16.6667 30.7763 16.974 30.2293 17.521C29.6823 18.0679 29.375 18.8098 29.375 19.5833ZM5.625 33.75C5.62522 34.5238 5.93281 35.2658 6.48011 35.8128C7.0274 36.3597 7.76957 36.6669 8.54333 36.6667C9.3171 36.6665 10.0591 36.3589 10.6061 35.8116C11.1531 35.2643 11.4602 34.5221 11.46 33.7483C11.4599 33.3652 11.3843 32.9859 11.2376 32.6319C11.0909 32.278 10.8759 31.9564 10.6049 31.6856C10.3339 31.4148 10.0122 31.2 9.65821 31.0534C9.3042 30.9069 8.9248 30.8316 8.54167 30.8317C8.15854 30.8318 7.77918 30.9074 7.42525 31.0541C7.07133 31.2008 6.74977 31.4158 6.47893 31.6868C6.20809 31.9578 5.99328 32.2795 5.84676 32.6335C5.70025 32.9875 5.62489 33.3669 5.625 33.75Z" fill="white"/>
</svg>
