<svg width="24" height="24" viewBox="0 0 24 24" fill="none" xmlns="http://www.w3.org/2000/svg">
<path d="M22 0C22.4899 6.46211e-05 22.9627 0.179912 23.3287 0.505431C23.6948 0.830949 23.9287 1.2795 23.986 1.766L24 2V22C23.9999 22.4899 23.8201 22.9627 23.4946 23.3287C23.1691 23.6948 22.7205 23.9287 22.234 23.986L22 24H2C1.51013 23.9999 1.03733 23.8201 0.671256 23.4946C0.305186 23.1691 0.0713144 22.7205 0.014 22.234L0 22V2C6.46211e-05 1.51013 0.179912 1.03733 0.505431 0.671256C0.830949 0.305186 1.2795 0.0713144 1.766 0.014L2 0H22ZM22 2H2V22H22V2ZM15.484 9.26C18.488 9.26 19.044 11.236 19.044 13.806L19.04 19.04H16.08L16.074 14C16.054 12.98 15.878 11.87 14.536 11.87C13.09 11.87 12.792 12.93 12.76 14.088L12.756 19.04H9.794V9.5H12.638V10.8H12.678C12.9628 10.3134 13.374 9.91313 13.8681 9.64161C14.3622 9.3701 14.9206 9.23953 15.484 9.26ZM7.932 9.498V19.04H4.964V9.498H7.932ZM6.45 4.754C6.90617 4.754 7.34366 4.93521 7.66622 5.25778C7.98879 5.58034 8.17 6.01783 8.17 6.474C8.17 6.93017 7.98879 7.36766 7.66622 7.69022C7.34366 8.01279 6.90617 8.194 6.45 8.194C5.99383 8.194 5.55634 8.01279 5.23378 7.69022C4.91121 7.36766 4.73 6.93017 4.73 6.474C4.73 6.01783 4.91121 5.58034 5.23378 5.25778C5.55634 4.93521 5.99383 4.754 6.45 4.754Z" fill="white"/>
</svg>
