<svg width="40" height="40" viewBox="0 0 40 40" fill="none" xmlns="http://www.w3.org/2000/svg">
<path d="M34.1666 28.215V16.6667C34.1666 10.3817 34.1666 7.23837 32.2133 5.28671C30.26 3.33504 27.1183 3.33337 20.8333 3.33337H19.1666C12.8816 3.33337 9.73831 3.33337 7.78665 5.28671C5.83498 7.24004 5.83331 10.3817 5.83331 16.6667V32.5" stroke="white" stroke-width="2.5" stroke-linecap="round"/>
<path d="M34.1666 28.3334H9.99998C8.89491 28.3334 7.8351 28.7724 7.0537 29.5538C6.2723 30.3352 5.83331 31.395 5.83331 32.5C5.83331 33.6051 6.2723 34.6649 7.0537 35.4463C7.8351 36.2277 8.89491 36.6667 9.99998 36.6667H34.1666" stroke="white" stroke-width="2.5" stroke-linecap="round"/>
<path d="M34.1666 36.6667C33.0616 36.6667 32.0018 36.2278 31.2204 35.4464C30.439 34.665 30 33.6051 30 32.5001C30 31.395 30.439 30.3352 31.2204 29.5538C32.0018 28.7724 33.0616 28.3334 34.1666 28.3334M20.5133 20.0001L18.0783 12.4651C17.994 12.2276 17.8371 12.0227 17.6298 11.8794C17.4224 11.7361 17.1753 11.6617 16.9233 11.6667C16.6713 11.6617 16.4242 11.7361 16.2169 11.8794C16.0096 12.0227 15.8526 12.2276 15.7683 12.4651L13.3333 20.0001M25 11.6667V20.0001M14.23 17.5001H19.615" stroke="white" stroke-width="2.5" stroke-linecap="round"/>
</svg>
