<svg width="40" height="40" viewBox="0 0 40 40" fill="none" xmlns="http://www.w3.org/2000/svg">
<path fill-rule="evenodd" clip-rule="evenodd" d="M17.5 3.33329C18.4667 3.33329 19.4167 3.42996 20.3317 3.61663C20.7649 3.70459 21.1454 3.96103 21.3895 4.32954C21.6336 4.69805 21.7213 5.14844 21.6333 5.58163C21.5454 6.01481 21.2889 6.39531 20.9204 6.63942C20.5519 6.88353 20.1015 6.97126 19.6683 6.88329C17.5692 6.45506 15.3901 6.65887 13.4068 7.46894C11.4234 8.27901 9.72475 9.65897 8.52559 11.4343C7.32643 13.2097 6.6806 15.3008 6.66976 17.4432C6.65892 19.5856 7.28355 21.6831 8.46468 23.4705C9.64581 25.2579 11.3304 26.655 13.3055 27.4851C15.2805 28.3152 17.4574 28.5411 19.5608 28.1341C21.6642 27.7271 23.5997 26.7056 25.1226 25.1988C26.6455 23.6919 27.6875 21.7673 28.1167 19.6683C28.1602 19.4538 28.2456 19.25 28.3679 19.0685C28.4902 18.887 28.6471 18.7314 28.8296 18.6105C29.0121 18.4896 29.2165 18.4059 29.4314 18.364C29.6462 18.3222 29.8672 18.3231 30.0817 18.3666C30.2962 18.4102 30.5 18.4956 30.6815 18.6179C30.863 18.7402 31.0186 18.8971 31.1395 19.0795C31.2603 19.262 31.3441 19.4665 31.3859 19.6813C31.4278 19.8962 31.4269 20.1171 31.3833 20.3316C30.9774 22.3193 30.1493 24.1967 28.955 25.8366L28.6267 26.27L34.7133 32.3566C35.0154 32.6559 35.1917 33.0592 35.2061 33.4842C35.2206 33.9092 35.072 34.3236 34.7909 34.6426C34.5098 34.9616 34.1174 35.1611 33.694 35.2003C33.2706 35.2395 32.8482 35.1153 32.5133 34.8533L32.3567 34.7133L26.27 28.6266C24.4957 30.0249 22.4128 30.9786 20.195 31.4081C17.9772 31.8377 15.6889 31.7307 13.5209 31.096C11.3528 30.4613 9.36805 29.3173 7.73206 27.7595C6.09608 26.2017 4.85635 24.2753 4.1163 22.1409C3.37625 20.0066 3.15735 17.7262 3.47785 15.49C3.79835 13.2539 4.64897 11.1268 5.95873 9.28621C7.26849 7.44565 8.99942 5.945 11.0071 4.90945C13.0148 3.8739 15.241 3.33349 17.5 3.33329ZM31.6667 1.66663C31.9785 1.66663 32.284 1.75409 32.5486 1.91908C32.8132 2.08407 33.0261 2.31996 33.1633 2.59996L33.2433 2.79496L33.46 3.42496C33.6887 4.09527 34.0571 4.70934 34.541 5.22653C35.0248 5.74372 35.6131 6.15221 36.2667 6.42496L36.575 6.54163L37.205 6.75663C37.517 6.86306 37.7904 7.05962 37.9907 7.32145C38.1909 7.58328 38.3091 7.89862 38.3301 8.22759C38.3512 8.55655 38.2742 8.88438 38.1089 9.1696C37.9437 9.45482 37.6975 9.68462 37.4017 9.82996L37.205 9.90996L36.575 10.1266C35.9047 10.3553 35.2906 10.7238 34.7734 11.2076C34.2562 11.6915 33.8478 12.2797 33.575 12.9333L33.4583 13.2416L33.2433 13.8716C33.1367 14.1835 32.94 14.4568 32.6781 14.6569C32.4161 14.857 32.1008 14.9749 31.7718 14.9958C31.4429 15.0167 31.1151 14.9396 30.83 14.7742C30.5449 14.6088 30.3152 14.3625 30.17 14.0666L30.09 13.8716L29.8733 13.2416C29.6447 12.5713 29.2762 11.9572 28.7923 11.4401C28.3085 10.9229 27.7203 10.5144 27.0667 10.2416L26.7583 10.125L26.1283 9.90996C25.8164 9.80352 25.5429 9.60696 25.3427 9.34513C25.1424 9.0833 25.0243 8.76796 25.0032 8.439C24.9822 8.11003 25.0591 7.78221 25.2244 7.49699C25.3897 7.21177 25.6358 6.98196 25.9317 6.83663L26.1283 6.75663L26.7583 6.53996C27.4286 6.31129 28.0427 5.94283 28.5599 5.45897C29.0771 4.97511 29.4856 4.3869 29.7583 3.73329L29.875 3.42496L30.09 2.79496C30.2023 2.46594 30.4147 2.18027 30.6974 1.97794C30.9801 1.77562 31.319 1.66676 31.6667 1.66663ZM31.6667 6.99329C31.2724 7.48946 30.8228 7.93903 30.3267 8.33329C30.8244 8.72774 31.2711 9.1744 31.6667 9.67329C32.0611 9.17551 32.5078 8.72885 33.0067 8.33329C32.5105 7.93903 32.0609 7.48946 31.6667 6.99329Z" fill="white"/>
</svg>
