<svg width="40" height="40" viewBox="0 0 40 40" fill="none" xmlns="http://www.w3.org/2000/svg">
<path d="M24.6485 15.7143C25.501 15.7143 26.3186 16.053 26.9214 16.6558C27.5242 17.2586 27.8628 18.0761 27.8628 18.9286V27.8558C27.8628 29.94 27.0349 31.9388 25.5611 33.4126C24.0873 34.8864 22.0885 35.7143 20.0043 35.7143C17.92 35.7143 15.9212 34.8864 14.4474 33.4126C12.9736 31.9388 12.1457 29.94 12.1457 27.8558V18.9286C12.1457 18.0761 12.4843 17.2586 13.0871 16.6558C13.6899 16.053 14.5075 15.7143 15.36 15.7143H24.6485ZM24.6485 17.8572H15.36C15.0758 17.8572 14.8033 17.9701 14.6024 18.171C14.4014 18.3719 14.2885 18.6445 14.2885 18.9286V27.8558C14.2885 29.3717 14.8907 30.8255 15.9626 31.8974C17.0345 32.9693 18.4884 33.5715 20.0043 33.5715C21.5202 33.5715 22.974 32.9693 24.0459 31.8974C25.1178 30.8255 25.72 29.3717 25.72 27.8558V18.9286C25.72 18.6445 25.6071 18.3719 25.4062 18.171C25.2052 17.9701 24.9327 17.8572 24.6485 17.8572ZM6.0714 15.7143H12.0085C11.4348 16.3114 11.0318 17.0514 10.8414 17.8572H6.0714C5.78724 17.8572 5.51472 17.9701 5.31379 18.171C5.11286 18.3719 4.99998 18.6445 4.99998 18.9286V26.4272C4.99941 27.1441 5.17871 27.8497 5.52145 28.4794C5.86419 29.1091 6.35942 29.6428 6.9618 30.0315C7.56418 30.4203 8.25446 30.6517 8.96943 30.7046C9.68441 30.7575 10.4012 30.6302 11.0543 30.3343C11.2443 31.0343 11.5171 31.7001 11.86 32.3229C10.8812 32.7506 9.81135 32.9277 8.747 32.8382C7.68264 32.7487 6.65735 32.3954 5.76379 31.8103C4.87024 31.2251 4.13656 30.4265 3.62907 29.4867C3.12158 28.5468 2.85627 27.4953 2.85712 26.4272V18.9286C2.85712 18.0761 3.19577 17.2586 3.79856 16.6558C4.40136 16.053 5.21892 15.7143 6.0714 15.7143ZM33.9285 15.7143C34.781 15.7143 35.5986 16.053 36.2014 16.6558C36.8042 17.2586 37.1428 18.0761 37.1428 18.9286V26.4286C37.1433 27.496 36.8779 28.5467 36.3707 29.4859C35.8635 30.425 35.1305 31.2232 34.2377 31.8082C33.3449 32.3932 32.3206 32.7467 31.257 32.8368C30.1934 32.9269 29.1242 32.7508 28.1457 32.3243L28.2257 32.1786C28.5314 31.5986 28.7785 30.9829 28.9557 30.3372C29.6084 30.6309 30.3243 30.7564 31.038 30.7024C31.7516 30.6483 32.4404 30.4164 33.0415 30.0277C33.6425 29.6391 34.1366 29.1061 34.4787 28.4774C34.8208 27.8487 35 27.1444 35 26.4286V18.9286C35 18.6447 34.8873 18.3724 34.6867 18.1715C34.486 17.9706 34.2139 17.8576 33.93 17.8572H29.1685C28.9778 17.0512 28.5742 16.3112 28 15.7143H33.9285ZM20 4.28577C20.6566 4.28577 21.3068 4.4151 21.9134 4.66637C22.52 4.91764 23.0712 5.28594 23.5355 5.75023C23.9998 6.21453 24.3681 6.76572 24.6194 7.37235C24.8706 7.97898 25 8.62916 25 9.28577C25 9.94238 24.8706 10.5926 24.6194 11.1992C24.3681 11.8058 23.9998 12.357 23.5355 12.8213C23.0712 13.2856 22.52 13.6539 21.9134 13.9052C21.3068 14.1564 20.6566 14.2858 20 14.2858C18.6739 14.2858 17.4021 13.759 16.4644 12.8213C15.5268 11.8836 15 10.6118 15 9.28577C15 7.95968 15.5268 6.68791 16.4644 5.75023C17.4021 4.81255 18.6739 4.28577 20 4.28577ZM31.4328 5.71434C31.9956 5.71434 32.5529 5.82519 33.0729 6.04057C33.5929 6.25595 34.0653 6.57163 34.4633 6.96959C34.8613 7.36756 35.1769 7.84001 35.3923 8.35998C35.6077 8.87995 35.7185 9.43724 35.7185 10.0001C35.7185 10.5629 35.6077 11.1202 35.3923 11.6401C35.1769 12.1601 34.8613 12.6325 34.4633 13.0305C34.0653 13.4285 33.5929 13.7442 33.0729 13.9595C32.5529 14.1749 31.9956 14.2858 31.4328 14.2858C30.2962 14.2858 29.2061 13.8342 28.4024 13.0305C27.5986 12.2268 27.1471 11.1367 27.1471 10.0001C27.1471 8.86341 27.5986 7.77332 28.4024 6.96959C29.2061 6.16587 30.2962 5.71434 31.4328 5.71434ZM8.56712 5.71434C9.12993 5.71434 9.68722 5.82519 10.2072 6.04057C10.7272 6.25595 11.1996 6.57163 11.5976 6.96959C11.9955 7.36756 12.3112 7.84001 12.5266 8.35998C12.742 8.87995 12.8528 9.43724 12.8528 10.0001C12.8528 10.5629 12.742 11.1202 12.5266 11.6401C12.3112 12.1601 11.9955 12.6325 11.5976 13.0305C11.1996 13.4285 10.7272 13.7442 10.2072 13.9595C9.68722 14.1749 9.12993 14.2858 8.56712 14.2858C7.43048 14.2858 6.34039 13.8342 5.53666 13.0305C4.73293 12.2268 4.2814 11.1367 4.2814 10.0001C4.2814 8.86341 4.73293 7.77332 5.53666 6.96959C6.34039 6.16587 7.43048 5.71434 8.56712 5.71434ZM20 6.42862C19.2422 6.42862 18.5155 6.72964 17.9797 7.26546C17.4439 7.80128 17.1428 8.52801 17.1428 9.28577C17.1428 10.0435 17.4439 10.7703 17.9797 11.3061C18.5155 11.8419 19.2422 12.1429 20 12.1429C20.7577 12.1429 21.4845 11.8419 22.0203 11.3061C22.5561 10.7703 22.8571 10.0435 22.8571 9.28577C22.8571 8.52801 22.5561 7.80128 22.0203 7.26546C21.4845 6.72964 20.7577 6.42862 20 6.42862ZM31.4328 7.8572C31.1514 7.8572 30.8728 7.91262 30.6128 8.02031C30.3528 8.128 30.1166 8.28584 29.9176 8.48482C29.7186 8.68381 29.5608 8.92003 29.4531 9.18002C29.3454 9.44 29.29 9.71865 29.29 10.0001C29.29 10.2815 29.3454 10.5601 29.4531 10.8201C29.5608 11.0801 29.7186 11.3163 29.9176 11.5153C30.1166 11.7143 30.3528 11.8721 30.6128 11.9798C30.8728 12.0875 31.1514 12.1429 31.4328 12.1429C32.0012 12.1429 32.5462 11.9171 32.9481 11.5153C33.3499 11.1134 33.5757 10.5684 33.5757 10.0001C33.5757 9.43173 33.3499 8.88669 32.9481 8.48482C32.5462 8.08296 32.0012 7.8572 31.4328 7.8572ZM8.56712 7.8572C8.28572 7.8572 8.00707 7.91262 7.74708 8.02031C7.4871 8.128 7.25087 8.28584 7.05189 8.48482C6.85291 8.68381 6.69507 8.92003 6.58738 9.18002C6.47969 9.44 6.42426 9.71865 6.42426 10.0001C6.42426 10.2815 6.47969 10.5601 6.58738 10.8201C6.69507 11.0801 6.85291 11.3163 7.05189 11.5153C7.25087 11.7143 7.4871 11.8721 7.74708 11.9798C8.00707 12.0875 8.28572 12.1429 8.56712 12.1429C9.13544 12.1429 9.68048 11.9171 10.0823 11.5153C10.4842 11.1134 10.71 10.5684 10.71 10.0001C10.71 9.43173 10.4842 8.88669 10.0823 8.48482C9.68048 8.08296 9.13544 7.8572 8.56712 7.8572Z" fill="white"/>
</svg>
