<svg width="24" height="24" viewBox="0 0 24 24" fill="none" xmlns="http://www.w3.org/2000/svg">
<rect width="24" height="24" rx="6" fill="#DCFCE7"/>
<path d="M16.5196 7.91679C17.3464 9.06609 17.8333 10.4762 17.8333 12.0001C17.8333 13.524 17.3464 14.9341 16.5196 16.0835M14.1848 9.66679C14.6461 10.3282 14.9167 11.1326 14.9167 12.0001C14.9167 12.8677 14.6461 13.6721 14.1848 14.3335M10.62 7.54677L8.77336 9.39342C8.67247 9.49431 8.62202 9.54475 8.56316 9.58083C8.51096 9.61281 8.45406 9.63638 8.39454 9.65067C8.32741 9.66679 8.25607 9.66679 8.11339 9.66679H7.09999C6.77329 9.66679 6.60994 9.66679 6.48516 9.73037C6.3754 9.78629 6.28616 9.87553 6.23024 9.98529C6.16666 10.1101 6.16666 10.2734 6.16666 10.6001V13.4001C6.16666 13.7268 6.16666 13.8902 6.23024 14.0149C6.28616 14.1247 6.3754 14.2139 6.48516 14.2699C6.60994 14.3335 6.77329 14.3335 7.09999 14.3335H8.11339C8.25607 14.3335 8.32741 14.3335 8.39454 14.3496C8.45406 14.3639 8.51096 14.3874 8.56316 14.4194C8.62202 14.4555 8.67247 14.5059 8.77336 14.6068L10.62 16.4535C10.8699 16.7034 10.9948 16.8283 11.1021 16.8367C11.1952 16.8441 11.2861 16.8064 11.3468 16.7354C11.4167 16.6536 11.4167 16.4769 11.4167 16.1235V7.87675C11.4167 7.52336 11.4167 7.34666 11.3468 7.26484C11.2861 7.19385 11.1952 7.15617 11.1021 7.1635C10.9948 7.17194 10.8699 7.29688 10.62 7.54677Z" stroke="#00A63E" stroke-width="1.5" stroke-linecap="round" stroke-linejoin="round"/>
</svg>
