<svg width="20" height="20" viewBox="0 0 20 20" fill="none" xmlns="http://www.w3.org/2000/svg">
<path d="M17.0833 6.66667V13.5C17.0833 14.9001 17.0833 15.6002 16.8108 16.135C16.5712 16.6054 16.1887 16.9878 15.7183 17.2275C15.1835 17.5 14.4835 17.5 13.0833 17.5H6.91666C5.51653 17.5 4.81646 17.5 4.28168 17.2275C3.81128 16.9878 3.42882 16.6054 3.18914 16.135C2.91666 15.6002 2.91666 14.9001 2.91666 13.5V6.66667M2.99999 2.5H17C17.4667 2.5 17.7001 2.5 17.8783 2.59083C18.0351 2.67072 18.1626 2.79821 18.2425 2.95501C18.3333 3.13327 18.3333 3.36662 18.3333 3.83333V5.33333C18.3333 5.80004 18.3333 6.0334 18.2425 6.21166C18.1626 6.36846 18.0351 6.49594 17.8783 6.57584C17.7001 6.66667 17.4667 6.66667 17 6.66667H2.99999C2.53328 6.66667 2.29992 6.66667 2.12166 6.57584C1.96486 6.49594 1.83738 6.36846 1.75748 6.21166C1.66666 6.0334 1.66666 5.80004 1.66666 5.33333V3.83333C1.66666 3.36662 1.66666 3.13327 1.75748 2.95501C1.83738 2.79821 1.96486 2.67072 2.12166 2.59083C2.29992 2.5 2.53328 2.5 2.99999 2.5ZM7.99999 9.58333H12C12.4667 9.58333 12.7001 9.58333 12.8783 9.67416C13.0351 9.75406 13.1626 9.88154 13.2425 10.0383C13.3333 10.2166 13.3333 10.45 13.3333 10.9167V11.5833C13.3333 12.05 13.3333 12.2834 13.2425 12.4617C13.1626 12.6185 13.0351 12.7459 12.8783 12.8258C12.7001 12.9167 12.4667 12.9167 12 12.9167H7.99999C7.53328 12.9167 7.29992 12.9167 7.12166 12.8258C6.96486 12.7459 6.83738 12.6185 6.75748 12.4617C6.66666 12.2834 6.66666 12.05 6.66666 11.5833V10.9167C6.66666 10.45 6.66666 10.2166 6.75748 10.0383C6.83738 9.88154 6.96486 9.75406 7.12166 9.67416C7.29992 9.58333 7.53328 9.58333 7.99999 9.58333Z" stroke="#0F0624" stroke-width="1.5" stroke-linecap="round" stroke-linejoin="round"/>
</svg>
