<svg width="22" height="22" viewBox="0 0 22 22" fill="none" xmlns="http://www.w3.org/2000/svg">
<path d="M14.6668 6.41667C14.6668 5.56419 14.6668 5.13796 14.5731 4.78825C14.3188 3.83924 13.5776 3.09799 12.6286 2.8437C12.2789 2.75 11.8526 2.75 11.0002 2.75C10.1477 2.75 9.72145 2.75 9.37174 2.8437C8.42274 3.09799 7.68148 3.83924 7.4272 4.78825C7.3335 5.13796 7.3335 5.56419 7.3335 6.41667M4.76683 19.25H17.2335C18.2603 19.25 18.7736 19.25 19.1658 19.0502C19.5108 18.8744 19.7912 18.5939 19.967 18.249C20.1668 17.8568 20.1668 17.3434 20.1668 16.3167V9.35C20.1668 8.32324 20.1668 7.80986 19.967 7.41768C19.7912 7.07272 19.5108 6.79226 19.1658 6.61649C18.7736 6.41667 18.2603 6.41667 17.2335 6.41667H4.76683C3.74007 6.41667 3.22669 6.41667 2.83451 6.61649C2.48955 6.79226 2.20909 7.07272 2.03332 7.41768C1.8335 7.80986 1.8335 8.32324 1.8335 9.35V16.3167C1.8335 17.3434 1.8335 17.8568 2.03332 18.249C2.20909 18.5939 2.48955 18.8744 2.83451 19.0502C3.22669 19.25 3.74007 19.25 4.76683 19.25Z" stroke="black" stroke-width="2" stroke-linecap="round" stroke-linejoin="round"/>
</svg>
