<svg width="20" height="20" viewBox="0 0 20 20" fill="none" xmlns="http://www.w3.org/2000/svg">
<path d="M10 16.6667H17.5M2.50003 16.6667H3.89548C4.30313 16.6667 4.50696 16.6667 4.69877 16.6206C4.86883 16.5798 5.03141 16.5125 5.18053 16.4211C5.34872 16.318 5.49285 16.1739 5.7811 15.8856L16.2501 5.41669C16.9404 4.72634 16.9404 3.60705 16.2501 2.91669C15.5597 2.22634 14.4404 2.22634 13.7501 2.91669L3.28108 13.3856C2.99283 13.6739 2.8487 13.818 2.74563 13.9862C2.65425 14.1353 2.58691 14.2979 2.54608 14.468C2.50003 14.6598 2.50003 14.8636 2.50003 15.2713V16.6667Z" stroke="#0F0624" stroke-width="2" stroke-linecap="round" stroke-linejoin="round"/>
</svg>
