<svg width="22" height="22" viewBox="0 0 22 22" fill="none" xmlns="http://www.w3.org/2000/svg">
<path d="M12.8334 2.08057V5.8669C12.8334 6.38028 12.8334 6.63697 12.9333 6.83305C13.0212 7.00553 13.1614 7.14577 13.3339 7.23365C13.53 7.33356 13.7867 7.33356 14.3001 7.33356H18.0864M12.8334 16.0418L15.1251 13.7502L12.8334 11.4585M9.16675 11.4585L6.87508 13.7502L9.16675 16.0418M18.3334 9.15604V15.7668C18.3334 17.307 18.3334 18.077 18.0337 18.6653C17.77 19.1827 17.3493 19.6034 16.8319 19.8671C16.2436 20.1668 15.4736 20.1668 13.9334 20.1668H8.06675C6.5266 20.1668 5.75653 20.1668 5.16827 19.8671C4.65083 19.6034 4.23013 19.1827 3.96648 18.6653C3.66675 18.077 3.66675 17.307 3.66675 15.7668V6.2335C3.66675 4.69335 3.66675 3.92328 3.96648 3.33502C4.23013 2.81758 4.65083 2.39688 5.16827 2.13323C5.75653 1.8335 6.5266 1.8335 8.06675 1.8335H11.0109C11.6835 1.8335 12.0198 1.8335 12.3363 1.90948C12.6169 1.97684 12.8851 2.08796 13.1312 2.23874C13.4087 2.4088 13.6465 2.64661 14.1221 3.12223L17.0447 6.04477C17.5203 6.52038 17.7581 6.75819 17.9282 7.03571C18.079 7.28176 18.1901 7.55001 18.2574 7.83061C18.3334 8.1471 18.3334 8.48341 18.3334 9.15604Z" stroke="#0F0624" stroke-width="2" stroke-linecap="round" stroke-linejoin="round"/>
</svg>
