<svg width="56" height="56" viewBox="0 0 56 56" fill="none" xmlns="http://www.w3.org/2000/svg">
<path d="M32.6668 5.29541V14.9333C32.6668 16.2401 32.6668 16.8935 32.9211 17.3926C33.1449 17.8317 33.5018 18.1886 33.9408 18.4124C34.44 18.6667 35.0934 18.6667 36.4002 18.6667H46.0381M37.3335 30.3332H18.6668M37.3335 39.6665H18.6668M23.3335 20.9998H18.6668M32.6668 4.6665H20.5335C16.6131 4.6665 14.6529 4.6665 13.1556 5.42946C11.8384 6.10057 10.7676 7.17144 10.0965 8.48857C9.3335 9.98595 9.3335 11.9461 9.3335 15.8665V40.1332C9.3335 44.0535 9.3335 46.0137 10.0965 47.5111C10.7676 48.8282 11.8384 49.8991 13.1556 50.5702C14.6529 51.3332 16.6131 51.3332 20.5335 51.3332H35.4668C39.3872 51.3332 41.3474 51.3332 42.8448 50.5702C44.1619 49.8991 45.2328 48.8282 45.9039 47.5111C46.6668 46.0137 46.6668 44.0535 46.6668 40.1332V18.6665L32.6668 4.6665Z" stroke="#717182" stroke-width="4.66667" stroke-linecap="round" stroke-linejoin="round"/>
</svg>
