<svg width="18" height="18" viewBox="0 0 18 18" fill="none" xmlns="http://www.w3.org/2000/svg">
<path d="M15.375 6V12.15C15.375 13.4101 15.375 14.0402 15.1298 14.5215C14.914 14.9448 14.5698 15.289 14.1465 15.5048C13.6652 15.75 13.0351 15.75 11.775 15.75H6.225C4.96488 15.75 4.33482 15.75 3.85352 15.5048C3.43016 15.289 3.08595 14.9448 2.87024 14.5215C2.625 14.0402 2.625 13.4101 2.625 12.15V6M2.7 2.25H15.3C15.72 2.25 15.9301 2.25 16.0905 2.33175C16.2316 2.40365 16.3464 2.51839 16.4183 2.65951C16.5 2.81994 16.5 3.02996 16.5 3.45V4.8C16.5 5.22004 16.5 5.43006 16.4183 5.59049C16.3464 5.73161 16.2316 5.84635 16.0905 5.91825C15.9301 6 15.72 6 15.3 6H2.7C2.27996 6 2.06994 6 1.90951 5.91825C1.76839 5.84635 1.65365 5.73161 1.58175 5.59049C1.5 5.43006 1.5 5.22004 1.5 4.8V3.45C1.5 3.02996 1.5 2.81994 1.58175 2.65951C1.65365 2.51839 1.76839 2.40365 1.90951 2.33175C2.06994 2.25 2.27996 2.25 2.7 2.25ZM7.2 8.625H10.8C11.22 8.625 11.4301 8.625 11.5905 8.70675C11.7316 8.77865 11.8463 8.89339 11.9183 9.03451C12 9.19494 12 9.40496 12 9.825V10.425C12 10.845 12 11.0551 11.9183 11.2155C11.8463 11.3566 11.7316 11.4713 11.5905 11.5433C11.4301 11.625 11.22 11.625 10.8 11.625H7.2C6.77996 11.625 6.56994 11.625 6.40951 11.5433C6.26839 11.4713 6.15365 11.3566 6.08175 11.2155C6 11.0551 6 10.845 6 10.425V9.825C6 9.40496 6 9.19494 6.08175 9.03451C6.15365 8.89339 6.26839 8.77865 6.40951 8.70675C6.56994 8.625 6.77996 8.625 7.2 8.625Z" stroke="white" stroke-width="1.5" stroke-linecap="round" stroke-linejoin="round"/>
</svg>
