<svg width="20" height="20" viewBox="0 0 20 20" fill="none" xmlns="http://www.w3.org/2000/svg">
<g clip-path="url(#clip0_133_18407)">
<path d="M7.57508 7.49984C7.771 6.94289 8.15771 6.47326 8.66671 6.17411C9.17571 5.87497 9.77416 5.76562 10.3561 5.86543C10.938 5.96524 11.4658 6.26777 11.846 6.71944C12.2262 7.17111 12.4343 7.74277 12.4334 8.33317C12.4334 9.99984 9.93341 10.8332 9.93341 10.8332M10.0001 14.1665H10.0084M18.3334 9.99984C18.3334 14.6022 14.6025 18.3332 10.0001 18.3332C5.39771 18.3332 1.66675 14.6022 1.66675 9.99984C1.66675 5.39746 5.39771 1.6665 10.0001 1.6665C14.6025 1.6665 18.3334 5.39746 18.3334 9.99984Z" stroke="#0F0624" stroke-width="2" stroke-linecap="round" stroke-linejoin="round"/>
</g>
<defs>
<clipPath id="clip0_133_18407">
<rect width="20" height="20" fill="white"/>
</clipPath>
</defs>
</svg>
