<svg width="22" height="22" viewBox="0 0 22 22" fill="none" xmlns="http://www.w3.org/2000/svg">
<path d="M11.4581 10.0833V6.875M11.4581 13.2917H11.4672M11.4581 18.3333C15.7613 18.3333 19.2497 14.8449 19.2497 10.5417C19.2497 6.23845 15.7613 2.75 11.4581 2.75C7.15485 2.75 3.6664 6.23845 3.6664 10.5417C3.6664 11.4125 3.80926 12.25 4.07283 13.0319C4.17201 13.3262 4.2216 13.4733 4.23055 13.5863C4.23938 13.6979 4.2327 13.7762 4.20509 13.8847C4.17712 13.9946 4.11538 14.1089 3.99191 14.3374L2.49255 17.1127C2.27869 17.5085 2.17175 17.7064 2.19568 17.8592C2.21653 17.9923 2.29484 18.1094 2.40981 18.1795C2.54182 18.2601 2.76559 18.2369 3.21315 18.1907L7.90742 17.7054C8.04958 17.6907 8.12066 17.6834 8.18544 17.6859C8.24916 17.6883 8.29415 17.6943 8.35628 17.7086C8.41946 17.7232 8.49891 17.7538 8.6578 17.815C9.52684 18.1498 10.471 18.3333 11.4581 18.3333Z" stroke="black" stroke-width="2" stroke-linecap="round" stroke-linejoin="round"/>
</svg>
