<svg width="20" height="20" viewBox="0 0 20 20" fill="none" xmlns="http://www.w3.org/2000/svg">
<path d="M4.16669 4.15809C4.16669 3.34879 4.16669 2.94414 4.33543 2.72108C4.48243 2.52675 4.70712 2.4065 4.95035 2.39198C5.22955 2.37531 5.56624 2.59977 6.23962 3.04869L15.0026 8.89067C15.559 9.2616 15.8372 9.44707 15.9341 9.68084C16.0189 9.88522 16.0189 10.1149 15.9341 10.3193C15.8372 10.5531 15.559 10.7385 15.0026 11.1095L6.23962 16.9514C5.56624 17.4004 5.22955 17.6248 4.95035 17.6082C4.70712 17.5936 4.48243 17.4734 4.33543 17.2791C4.16669 17.056 4.16669 16.6513 4.16669 15.842V4.15809Z" stroke="#0F0624" stroke-width="1.5" stroke-linecap="round" stroke-linejoin="round"/>
</svg>
