<svg width="20" height="20" viewBox="0 0 20 20" fill="none" xmlns="http://www.w3.org/2000/svg">
<path d="M7.82927 16.1424L8.31631 17.2378C8.46109 17.5639 8.69737 17.8409 8.9965 18.0353C9.29562 18.2298 9.64473 18.3332 10.0015 18.3332C10.3583 18.3332 10.7074 18.2298 11.0065 18.0353C11.3056 17.8409 11.5419 17.5639 11.6867 17.2378L12.1737 16.1424C12.3471 15.7538 12.6387 15.4297 13.0071 15.2165C13.3777 15.0027 13.8065 14.9116 14.2321 14.9563L15.4237 15.0832C15.7784 15.1207 16.1364 15.0545 16.4543 14.8926C16.7721 14.7307 17.0362 14.4801 17.2145 14.1711C17.3929 13.8623 17.478 13.5084 17.4592 13.1522C17.4405 12.7961 17.3188 12.453 17.1089 12.1647L16.4033 11.1952C16.1521 10.8474 16.0179 10.4288 16.02 9.99984C16.0199 9.57199 16.1554 9.15513 16.4071 8.8091L17.1126 7.83965C17.3225 7.5513 17.4442 7.20823 17.4629 6.85206C17.4817 6.4959 17.3966 6.14195 17.2182 5.83317C17.0399 5.5242 16.7758 5.27358 16.458 5.11169C16.1401 4.94981 15.7821 4.88361 15.4274 4.92113L14.2358 5.04799C13.8102 5.09268 13.3814 5.0016 13.0108 4.7878C12.6417 4.57338 12.35 4.24764 12.1774 3.85724L11.6867 2.76187C11.5419 2.43581 11.3056 2.15877 11.0065 1.96434C10.7074 1.76991 10.3583 1.66645 10.0015 1.6665C9.64473 1.66645 9.29562 1.76991 8.9965 1.96434C8.69737 2.15877 8.46109 2.43581 8.31631 2.76187L7.82927 3.85724C7.65671 4.24764 7.365 4.57338 6.99594 4.7878C6.62529 5.0016 6.1965 5.09268 5.77094 5.04799L4.57557 4.92113C4.22084 4.88361 3.86285 4.94981 3.545 5.11169C3.22714 5.27358 2.96308 5.5242 2.78483 5.83317C2.60635 6.14195 2.52131 6.4959 2.54005 6.85206C2.55879 7.20823 2.68049 7.5513 2.89038 7.83965L3.59594 8.8091C3.84756 9.15513 3.98305 9.57199 3.98298 9.99984C3.98305 10.4277 3.84756 10.8445 3.59594 11.1906L2.89038 12.16C2.68049 12.4484 2.55879 12.7914 2.54005 13.1476C2.52131 13.5038 2.60635 13.8577 2.78483 14.1665C2.96326 14.4753 3.22735 14.7258 3.54516 14.8877C3.86297 15.0495 4.22087 15.1158 4.57557 15.0785L5.76724 14.9517C6.19279 14.907 6.62158 14.9981 6.99224 15.2119C7.36268 15.4257 7.65574 15.7515 7.82927 16.1424Z" stroke="#0457B2" stroke-width="2" stroke-linecap="round" stroke-linejoin="round"/>
<path d="M10 12.4998C11.3807 12.4998 12.5 11.3805 12.5 9.99984C12.5 8.61913 11.3807 7.49984 10 7.49984C8.61929 7.49984 7.50001 8.61913 7.50001 9.99984C7.50001 11.3805 8.61929 12.4998 10 12.4998Z" stroke="#0457B2" stroke-width="2" stroke-linecap="round" stroke-linejoin="round"/>
</svg>
