<svg width="20" height="20" viewBox="0 0 20 20" fill="none" xmlns="http://www.w3.org/2000/svg">
<path d="M16.2502 5.83366V1.66699M18.3335 3.75033H14.1668M9.16683 2.50033L10.612 6.25771C10.847 6.86874 10.9645 7.17425 11.1472 7.43123C11.3092 7.65899 11.5082 7.85798 11.7359 8.01993C11.9929 8.20266 12.2984 8.32017 12.9094 8.55518L16.6668 10.0003L12.9094 11.4455C12.2984 11.6805 11.9929 11.798 11.7359 11.9807C11.5082 12.1427 11.3092 12.3417 11.1472 12.5694C10.9645 12.8264 10.847 13.1319 10.612 13.7429L9.16683 17.5003L7.72168 13.7429C7.48667 13.1319 7.36917 12.8264 7.18644 12.5694C7.02449 12.3417 6.82549 12.1427 6.59773 11.9807C6.34075 11.798 6.03524 11.6805 5.42421 11.4455L1.66683 10.0003L5.42422 8.55518C6.03524 8.32017 6.34075 8.20266 6.59773 8.01993C6.82549 7.85798 7.02449 7.65899 7.18644 7.43123C7.36917 7.17425 7.48667 6.86874 7.72168 6.25771L9.16683 2.50033Z" stroke="#0F0624" stroke-width="2" stroke-linecap="round" stroke-linejoin="round"/>
</svg>
