<svg width="22" height="22" viewBox="0 0 22 22" fill="none" xmlns="http://www.w3.org/2000/svg">
<path d="M18.3334 19.25C18.3334 17.9707 18.3334 17.3311 18.1755 16.8106C17.82 15.6387 16.903 14.7217 15.7311 14.3662C15.2106 14.2083 14.571 14.2083 13.2917 14.2083H8.70842C7.42915 14.2083 6.78951 14.2083 6.26903 14.3662C5.09717 14.7217 4.18012 15.6387 3.82463 16.8106C3.66675 17.3311 3.66675 17.9707 3.66675 19.25M15.1251 6.875C15.1251 9.15317 13.2783 11 11.0001 11C8.72191 11 6.87508 9.15317 6.87508 6.875C6.87508 4.59683 8.72191 2.75 11.0001 2.75C13.2783 2.75 15.1251 4.59683 15.1251 6.875Z" stroke="#0F0624" stroke-width="2" stroke-linecap="round" stroke-linejoin="round"/>
</svg>
