<svg width="24" height="24" viewBox="0 0 24 24" fill="none" xmlns="http://www.w3.org/2000/svg">
<rect width="24" height="24" rx="6" fill="#DBEAFE"/>
<path d="M17.8333 10.2098C17.8333 9.85641 17.8333 9.67971 17.7634 9.59789C17.7028 9.5269 17.6118 9.48922 17.5188 9.49655C17.4115 9.50499 17.2866 9.62993 17.0367 9.87982L14.9167 11.9998L17.0367 14.1199C17.2866 14.3697 17.4115 14.4947 17.5188 14.5031C17.6118 14.5105 17.7028 14.4728 17.7634 14.4018C17.8333 14.32 17.8333 14.1433 17.8333 13.7899V10.2098Z" stroke="#165DFB" stroke-width="1.5" stroke-linecap="round" stroke-linejoin="round"/>
<path d="M6.16666 10.7165C6.16666 9.73641 6.16666 9.24637 6.3574 8.87202C6.52517 8.54274 6.79289 8.27502 7.12217 8.10724C7.49652 7.9165 7.98656 7.9165 8.96666 7.9165H12.1167C13.0967 7.9165 13.5868 7.9165 13.9611 8.10724C14.2904 8.27502 14.5581 8.54274 14.7259 8.87202C14.9167 9.24637 14.9167 9.73641 14.9167 10.7165V13.2832C14.9167 14.2633 14.9167 14.7533 14.7259 15.1277C14.5581 15.4569 14.2904 15.7247 13.9611 15.8924C13.5868 16.0832 13.0967 16.0832 12.1167 16.0832H8.96666C7.98656 16.0832 7.49652 16.0832 7.12217 15.8924C6.79289 15.7247 6.52517 15.4569 6.3574 15.1277C6.16666 14.7533 6.16666 14.2633 6.16666 13.2832V10.7165Z" stroke="#165DFB" stroke-width="1.5" stroke-linecap="round" stroke-linejoin="round"/>
</svg>
