<svg width="16" height="16" viewBox="0 0 16 16" fill="none" xmlns="http://www.w3.org/2000/svg">
<path d="M14.6667 5.95441C14.6667 5.55053 14.6667 5.34859 14.5868 5.25508C14.5175 5.17395 14.4136 5.13089 14.3072 5.13926C14.1846 5.14891 14.0418 5.2917 13.7563 5.57729L11.3334 8.00016L13.7563 10.423C14.0418 10.7086 14.1846 10.8514 14.3072 10.8611C14.4136 10.8694 14.5175 10.8264 14.5868 10.7452C14.6667 10.6517 14.6667 10.4498 14.6667 10.0459V5.95441Z" stroke="#39CF03" stroke-width="1.5" stroke-linecap="round" stroke-linejoin="round"/>
<path d="M1.33337 6.5335C1.33337 5.41339 1.33337 4.85334 1.55136 4.42552C1.74311 4.04919 2.04907 3.74323 2.42539 3.55148C2.85322 3.3335 3.41327 3.3335 4.53337 3.3335H8.13337C9.25348 3.3335 9.81353 3.3335 10.2414 3.55148C10.6177 3.74323 10.9236 4.04919 11.1154 4.42552C11.3334 4.85334 11.3334 5.41339 11.3334 6.5335V9.46683C11.3334 10.5869 11.3334 11.147 11.1154 11.5748C10.9236 11.9511 10.6177 12.2571 10.2414 12.4488C9.81353 12.6668 9.25348 12.6668 8.13337 12.6668H4.53337C3.41327 12.6668 2.85322 12.6668 2.42539 12.4488C2.04907 12.2571 1.74311 11.9511 1.55136 11.5748C1.33337 11.147 1.33337 10.5869 1.33337 9.46683V6.5335Z" stroke="#39CF03" stroke-width="1.5" stroke-linecap="round" stroke-linejoin="round"/>
</svg>
